<svg id="svg" viewBox="0 0 1535 1535" fill="none" xmlns="http://www.w3.org/2000/svg">
    <path d="M0 483.5H1535" stroke="#C4C4C4" stroke-width="120" />
    <path d="M0 820H1535" stroke="#DBDCDC" stroke-width="120" />
    <path d="M0 1363.5H1535" stroke="#DBDCDC" stroke-width="120" />
    <path d="M0 130.5H1535" stroke="#FF1864" />
    <path d="M0 249.5H1535" stroke="#C4C4C4" />
    <path d="M0 397.5H1535" stroke="#FF1864" />
    <path d="M0 513.5H1535" stroke="#000000" />
    <path d="M0 620.5H1535" stroke="#C4C4C4" />
    <path d="M0 688.5H1535" stroke="#6E6E6E" />
    <path d="M0 756.5H1535" stroke="#FF1864" />
    <path d="M0 921.5H1535" stroke="#C4C4C4" />
    <path d="M0 850H1535" stroke="#FF1864" />
    <path d="M0 1097.5H1535" stroke="#000000" />
    <path d="M0 1196.5H1535" stroke="#C4C4C4" />
    <path d="M0 1253.5H1535" stroke="#FF1864" />
    <path d="M0 1273.5H1535" stroke="#FF1864" />
    <path d="M0 1293.5H1535" stroke="#C4C4C4" />

    <path d="M0 938.5H1535" stroke="#000000" />
    <path d="M0 738.5H1535" stroke="#FFFFFF" />
    <path d="M0 338.5H1535" stroke="#FF1864" />
</svg>
