<svg width="48" height="48" viewBox="0 0 48 48" fill="none" xmlns="http://www.w3.org/2000/svg">
<path d="M23.9999 0.56006C18.2863 0.558362 12.7595 2.5951 8.41333 6.30403C4.06718 10.013 1.1868 15.1508 0.290124 20.7936C-0.606553 26.4364 0.539305 32.214 3.52165 37.0874C6.504 41.9609 11.1272 45.6105 16.5599 47.3801H17.1399C17.4228 47.3976 17.7063 47.3548 17.9715 47.2545C18.2366 47.1541 18.4774 46.9986 18.6779 46.7981C18.8784 46.5976 19.0339 46.3568 19.1343 46.0917C19.2346 45.8265 19.2774 45.543 19.2599 45.2601V44.8401C19.2599 44.5001 19.2599 44.0401 19.2599 42.6601C19.2402 42.529 19.1948 42.4032 19.1261 42.2899C19.0574 42.1766 18.9669 42.0781 18.8599 42.0001C18.7437 41.9061 18.6079 41.8393 18.4626 41.8047C18.3172 41.7701 18.1659 41.7685 18.0199 41.8001C12.6599 42.9601 11.5199 39.6001 11.4399 39.3801C10.7687 37.6023 9.56792 36.0734 7.99986 35.0001C7.90591 34.9188 7.80559 34.8452 7.69986 34.7801C7.93227 34.6549 8.19812 34.606 8.45986 34.6401C8.96254 34.71 9.43856 34.9088 9.84161 35.2172C10.2447 35.5256 10.561 35.9331 10.7599 36.4001C11.5336 37.7472 12.7996 38.7418 14.2917 39.1745C15.7837 39.6072 17.3855 39.4443 18.7599 38.7201C18.9073 38.6556 19.0371 38.5565 19.1381 38.4311C19.239 38.3058 19.3083 38.1579 19.3399 38.0001C19.4164 37.0749 19.8124 36.2053 20.4599 35.5401C20.6036 35.4124 20.7075 35.246 20.7591 35.0609C20.8107 34.8757 20.8079 34.6795 20.7509 34.4959C20.6939 34.3123 20.5852 34.1491 20.4378 34.0256C20.2905 33.9022 20.1106 33.8239 19.9199 33.8001C15.1799 33.2601 10.3399 31.6001 10.3399 23.4201C10.2999 21.3658 11.0518 19.375 12.4399 17.8601C12.5677 17.7189 12.6526 17.5441 12.6844 17.3563C12.7163 17.1685 12.6939 16.9755 12.6199 16.8001C12.064 15.2471 12.0711 13.5483 12.6399 12.0001C14.4875 12.3276 16.2217 13.119 17.6799 14.3001C17.8003 14.3851 17.9384 14.4418 18.0839 14.4661C18.2293 14.4903 18.3783 14.4814 18.5199 14.4401C20.3064 13.9554 22.1487 13.7066 23.9999 13.7001C25.8579 13.7016 27.7075 13.9505 29.4999 14.4401C29.6384 14.4783 29.7837 14.4856 29.9255 14.4614C30.0672 14.4372 30.2018 14.3821 30.3199 14.3001C31.7803 13.1227 33.5135 12.3317 35.3599 12.0001C35.9043 13.54 35.9043 15.2201 35.3599 16.7601C35.2858 16.9355 35.2634 17.1285 35.2953 17.3163C35.3272 17.5041 35.412 17.6789 35.5399 17.8201C36.9135 19.3198 37.6644 21.2864 37.6399 23.3201C37.6399 31.5001 32.7799 33.1401 28.0199 33.6801C27.8246 33.7004 27.6397 33.7777 27.4881 33.9024C27.3365 34.0271 27.225 34.1937 27.1674 34.3814C27.1098 34.569 27.1088 34.7695 27.1643 34.9577C27.2199 35.146 27.3296 35.3137 27.4799 35.4401C27.9229 35.8973 28.2614 36.4453 28.472 37.0461C28.6827 37.6469 28.7604 38.2863 28.6999 38.9201V45.2801C28.69 45.5927 28.7494 45.9037 28.8739 46.1907C28.9983 46.4777 29.1848 46.7336 29.4199 46.9401C29.7192 47.1642 30.0668 47.3153 30.4348 47.3812C30.8029 47.4472 31.1813 47.4263 31.5399 47.3201C36.9361 45.5148 41.5153 41.851 44.4606 36.9823C47.4058 32.1137 48.5254 26.3569 47.6195 20.7393C46.7137 15.1217 43.8414 10.0087 39.5151 6.31255C35.1888 2.61643 29.69 0.577669 23.9999 0.56006Z" fill="white"/>
</svg>
