<svg width="751" height="305" viewBox="0 0 751 305" fill="none" xmlns="http://www.w3.org/2000/svg">
<rect x="304" y="53.262" width="446" height="250" rx="1" stroke="#9B9B9B" stroke-width="2" stroke-dasharray="8 8"/>
<path d="M410.281 183.262V171.887H413.781C414.781 171.887 415.674 172.114 416.461 172.567C417.253 173.015 417.87 173.655 418.312 174.489C418.755 175.317 418.977 176.259 418.977 177.317V177.84C418.977 178.897 418.758 179.837 418.32 180.66C417.888 181.483 417.276 182.121 416.484 182.574C415.693 183.028 414.799 183.257 413.805 183.262H410.281ZM412.625 173.785V181.379H413.758C414.674 181.379 415.375 181.08 415.859 180.481C416.344 179.882 416.591 179.025 416.602 177.91V177.309C416.602 176.153 416.362 175.278 415.883 174.684C415.404 174.085 414.703 173.785 413.781 173.785H412.625ZM425.289 176.926C424.982 176.884 424.711 176.864 424.477 176.864C423.622 176.864 423.062 177.153 422.797 177.731V183.262H420.539V174.809H422.672L422.734 175.817C423.188 175.041 423.815 174.653 424.617 174.653C424.867 174.653 425.102 174.686 425.32 174.754L425.289 176.926ZM431.047 183.262C430.943 183.059 430.867 182.806 430.82 182.504C430.273 183.114 429.562 183.418 428.688 183.418C427.859 183.418 427.172 183.179 426.625 182.699C426.083 182.22 425.812 181.616 425.812 180.887C425.812 179.991 426.143 179.304 426.805 178.824C427.471 178.345 428.432 178.103 429.688 178.098H430.727V177.614C430.727 177.223 430.625 176.91 430.422 176.676C430.224 176.442 429.909 176.324 429.477 176.324C429.096 176.324 428.797 176.416 428.578 176.598C428.365 176.78 428.258 177.03 428.258 177.348H426C426 176.858 426.151 176.405 426.453 175.989C426.755 175.572 427.182 175.246 427.734 175.012C428.286 174.772 428.906 174.653 429.594 174.653C430.635 174.653 431.461 174.916 432.07 175.442C432.685 175.962 432.992 176.697 432.992 177.645V181.309C432.997 182.111 433.109 182.718 433.328 183.129V183.262H431.047ZM429.18 181.692C429.513 181.692 429.82 181.619 430.102 181.473C430.383 181.322 430.591 181.121 430.727 180.871V179.418H429.883C428.753 179.418 428.151 179.809 428.078 180.59L428.07 180.723C428.07 181.004 428.169 181.236 428.367 181.418C428.565 181.601 428.836 181.692 429.18 181.692ZM434.398 178.973C434.398 177.676 434.706 176.632 435.32 175.84C435.94 175.048 436.773 174.653 437.82 174.653C438.747 174.653 439.469 174.97 439.984 175.606L440.078 174.809H442.125V182.981C442.125 183.72 441.956 184.364 441.617 184.91C441.284 185.457 440.812 185.874 440.203 186.16C439.594 186.447 438.88 186.59 438.062 186.59C437.443 186.59 436.839 186.465 436.25 186.215C435.661 185.97 435.216 185.653 434.914 185.262L435.914 183.887C436.477 184.517 437.159 184.832 437.961 184.832C438.56 184.832 439.026 184.671 439.359 184.348C439.693 184.03 439.859 183.577 439.859 182.989V182.535C439.339 183.124 438.654 183.418 437.805 183.418C436.789 183.418 435.966 183.022 435.336 182.231C434.711 181.434 434.398 180.379 434.398 179.067V178.973ZM436.656 179.137C436.656 179.903 436.81 180.504 437.117 180.942C437.424 181.374 437.846 181.59 438.383 181.59C439.07 181.59 439.562 181.332 439.859 180.817V177.262C439.557 176.746 439.07 176.489 438.398 176.489C437.857 176.489 437.43 176.71 437.117 177.153C436.81 177.595 436.656 178.257 436.656 179.137ZM447.539 180.199C447.539 179.673 447.685 179.186 447.977 178.739C448.273 178.291 448.815 177.793 449.602 177.246C449.263 176.793 448.997 176.369 448.805 175.973C448.612 175.572 448.516 175.155 448.516 174.723C448.516 173.837 448.794 173.119 449.352 172.567C449.914 172.009 450.669 171.731 451.617 171.731C452.466 171.731 453.161 171.983 453.703 172.489C454.25 172.994 454.523 173.624 454.523 174.379C454.523 175.285 454.065 176.085 453.148 176.778L452.273 177.41L454.234 179.692C454.542 179.087 454.695 178.421 454.695 177.692H456.617C456.617 179.171 456.276 180.369 455.594 181.285L457.297 183.262H454.734L454.148 182.59C453.31 183.142 452.346 183.418 451.258 183.418C450.133 183.418 449.232 183.124 448.555 182.535C447.878 181.942 447.539 181.163 447.539 180.199ZM451.367 181.606C451.909 181.606 452.422 181.455 452.906 181.153L450.664 178.559L450.5 178.676C450.036 179.072 449.805 179.538 449.805 180.074C449.805 180.528 449.948 180.897 450.234 181.184C450.526 181.465 450.904 181.606 451.367 181.606ZM450.539 174.692C450.539 175.082 450.768 175.574 451.227 176.168L451.828 175.77C452.135 175.572 452.346 175.379 452.461 175.192C452.581 175.004 452.641 174.78 452.641 174.52C452.641 174.259 452.544 174.033 452.352 173.84C452.159 173.647 451.911 173.551 451.609 173.551C451.286 173.551 451.026 173.655 450.828 173.864C450.635 174.072 450.539 174.348 450.539 174.692ZM462.484 183.262V171.887H465.984C466.984 171.887 467.878 172.114 468.664 172.567C469.456 173.015 470.073 173.655 470.516 174.489C470.958 175.317 471.18 176.259 471.18 177.317V177.84C471.18 178.897 470.961 179.837 470.523 180.66C470.091 181.483 469.479 182.121 468.688 182.574C467.896 183.028 467.003 183.257 466.008 183.262H462.484ZM464.828 173.785V181.379H465.961C466.878 181.379 467.578 181.08 468.062 180.481C468.547 179.882 468.794 179.025 468.805 177.91V177.309C468.805 176.153 468.565 175.278 468.086 174.684C467.607 174.085 466.906 173.785 465.984 173.785H464.828ZM477.492 176.926C477.185 176.884 476.914 176.864 476.68 176.864C475.826 176.864 475.266 177.153 475 177.731V183.262H472.742V174.809H474.875L474.938 175.817C475.391 175.041 476.018 174.653 476.82 174.653C477.07 174.653 477.305 174.686 477.523 174.754L477.492 176.926ZM477.953 178.957C477.953 178.119 478.115 177.371 478.438 176.715C478.76 176.059 479.224 175.551 479.828 175.192C480.438 174.832 481.143 174.653 481.945 174.653C483.086 174.653 484.016 175.002 484.734 175.699C485.458 176.397 485.862 177.345 485.945 178.543L485.961 179.121C485.961 180.418 485.599 181.46 484.875 182.246C484.151 183.028 483.18 183.418 481.961 183.418C480.742 183.418 479.768 183.028 479.039 182.246C478.315 181.465 477.953 180.403 477.953 179.059V178.957ZM480.211 179.121C480.211 179.923 480.362 180.538 480.664 180.965C480.966 181.387 481.398 181.598 481.961 181.598C482.508 181.598 482.935 181.39 483.242 180.973C483.549 180.551 483.703 179.879 483.703 178.957C483.703 178.171 483.549 177.561 483.242 177.129C482.935 176.697 482.503 176.481 481.945 176.481C481.393 176.481 480.966 176.697 480.664 177.129C480.362 177.556 480.211 178.22 480.211 179.121ZM494.961 179.114C494.961 180.416 494.664 181.46 494.07 182.246C493.482 183.028 492.685 183.418 491.68 183.418C490.826 183.418 490.135 183.121 489.609 182.528V186.512H487.352V174.809H489.445L489.523 175.637C490.07 174.981 490.784 174.653 491.664 174.653C492.706 174.653 493.516 175.038 494.094 175.809C494.672 176.58 494.961 177.642 494.961 178.996V179.114ZM492.703 178.949C492.703 178.163 492.562 177.556 492.281 177.129C492.005 176.702 491.602 176.489 491.07 176.489C490.362 176.489 489.875 176.759 489.609 177.301V180.762C489.885 181.319 490.378 181.598 491.086 181.598C492.164 181.598 492.703 180.715 492.703 178.949ZM503.508 180.067L505.07 174.809H507.492L504.094 184.574L503.906 185.02C503.401 186.124 502.568 186.676 501.406 186.676C501.078 186.676 500.745 186.627 500.406 186.528V184.817L500.75 184.824C501.177 184.824 501.495 184.759 501.703 184.629C501.917 184.499 502.083 184.283 502.203 183.981L502.469 183.285L499.508 174.809H501.938L503.508 180.067ZM507.906 178.957C507.906 178.119 508.068 177.371 508.391 176.715C508.714 176.059 509.177 175.551 509.781 175.192C510.391 174.832 511.096 174.653 511.898 174.653C513.039 174.653 513.969 175.002 514.688 175.699C515.411 176.397 515.815 177.345 515.898 178.543L515.914 179.121C515.914 180.418 515.552 181.46 514.828 182.246C514.104 183.028 513.133 183.418 511.914 183.418C510.695 183.418 509.721 183.028 508.992 182.246C508.268 181.465 507.906 180.403 507.906 179.059V178.957ZM510.164 179.121C510.164 179.923 510.315 180.538 510.617 180.965C510.919 181.387 511.352 181.598 511.914 181.598C512.461 181.598 512.888 181.39 513.195 180.973C513.503 180.551 513.656 179.879 513.656 178.957C513.656 178.171 513.503 177.561 513.195 177.129C512.888 176.697 512.456 176.481 511.898 176.481C511.346 176.481 510.919 176.697 510.617 177.129C510.315 177.556 510.164 178.22 510.164 179.121ZM522.367 182.403C521.81 183.08 521.039 183.418 520.055 183.418C519.148 183.418 518.456 183.158 517.977 182.637C517.503 182.116 517.26 181.353 517.25 180.348V174.809H519.508V180.27C519.508 181.15 519.909 181.59 520.711 181.59C521.477 181.59 522.003 181.324 522.289 180.793V174.809H524.555V183.262H522.43L522.367 182.403ZM531.008 176.926C530.701 176.884 530.43 176.864 530.195 176.864C529.341 176.864 528.781 177.153 528.516 177.731V183.262H526.258V174.809H528.391L528.453 175.817C528.906 175.041 529.534 174.653 530.336 174.653C530.586 174.653 530.82 174.686 531.039 174.754L531.008 176.926ZM536.633 183.262V176.465H535.375V174.809H536.633V174.418C536.643 173.356 536.969 172.538 537.609 171.965C538.255 171.387 539.164 171.098 540.336 171.098C541.039 171.098 541.893 171.252 542.898 171.559L542.57 173.426C542.06 173.275 541.664 173.179 541.383 173.137C541.102 173.09 540.799 173.067 540.477 173.067C539.424 173.067 538.898 173.533 538.898 174.465V174.809H540.562V176.465H538.898V183.262H536.633ZM543.953 183.262H541.688V174.809H543.953V183.262ZM550.57 176.926C550.263 176.884 549.992 176.864 549.758 176.864C548.904 176.864 548.344 177.153 548.078 177.731V183.262H545.82V174.809H547.953L548.016 175.817C548.469 175.041 549.096 174.653 549.898 174.653C550.148 174.653 550.383 174.686 550.602 174.754L550.57 176.926ZM556.242 180.926C556.242 180.65 556.104 180.434 555.828 180.278C555.557 180.116 555.12 179.973 554.516 179.848C552.505 179.426 551.5 178.572 551.5 177.285C551.5 176.535 551.81 175.91 552.43 175.41C553.055 174.905 553.87 174.653 554.875 174.653C555.948 174.653 556.805 174.905 557.445 175.41C558.091 175.916 558.414 176.572 558.414 177.379H556.156C556.156 177.056 556.052 176.791 555.844 176.582C555.635 176.369 555.31 176.262 554.867 176.262C554.487 176.262 554.193 176.348 553.984 176.52C553.776 176.692 553.672 176.91 553.672 177.176C553.672 177.426 553.789 177.629 554.023 177.785C554.263 177.936 554.664 178.069 555.227 178.184C555.789 178.293 556.263 178.418 556.648 178.559C557.841 178.996 558.438 179.754 558.438 180.832C558.438 181.603 558.107 182.228 557.445 182.707C556.784 183.181 555.93 183.418 554.883 183.418C554.174 183.418 553.544 183.293 552.992 183.043C552.445 182.788 552.016 182.442 551.703 182.004C551.391 181.561 551.234 181.085 551.234 180.574H553.375C553.396 180.976 553.544 181.283 553.82 181.496C554.096 181.71 554.466 181.817 554.93 181.817C555.362 181.817 555.688 181.736 555.906 181.574C556.13 181.408 556.242 181.192 556.242 180.926ZM562.602 172.731V174.809H564.047V176.465H562.602V180.684C562.602 180.996 562.661 181.22 562.781 181.356C562.901 181.491 563.13 181.559 563.469 181.559C563.719 181.559 563.94 181.541 564.133 181.504V183.215C563.69 183.351 563.234 183.418 562.766 183.418C561.182 183.418 560.375 182.619 560.344 181.02V176.465H559.109V174.809H560.344V172.731H562.602ZM571.781 179.254V183.262H569.438V171.887H573.875C574.729 171.887 575.479 172.043 576.125 172.356C576.776 172.668 577.276 173.114 577.625 173.692C577.974 174.265 578.148 174.918 578.148 175.653C578.148 176.767 577.766 177.647 577 178.293C576.24 178.934 575.185 179.254 573.836 179.254H571.781ZM571.781 177.356H573.875C574.495 177.356 574.966 177.21 575.289 176.918C575.617 176.627 575.781 176.21 575.781 175.668C575.781 175.111 575.617 174.66 575.289 174.317C574.961 173.973 574.508 173.796 573.93 173.785H571.781V177.356ZM584.422 183.262C584.318 183.059 584.242 182.806 584.195 182.504C583.648 183.114 582.938 183.418 582.062 183.418C581.234 183.418 580.547 183.179 580 182.699C579.458 182.22 579.188 181.616 579.188 180.887C579.188 179.991 579.518 179.304 580.18 178.824C580.846 178.345 581.807 178.103 583.062 178.098H584.102V177.614C584.102 177.223 584 176.91 583.797 176.676C583.599 176.442 583.284 176.324 582.852 176.324C582.471 176.324 582.172 176.416 581.953 176.598C581.74 176.78 581.633 177.03 581.633 177.348H579.375C579.375 176.858 579.526 176.405 579.828 175.989C580.13 175.572 580.557 175.246 581.109 175.012C581.661 174.772 582.281 174.653 582.969 174.653C584.01 174.653 584.836 174.916 585.445 175.442C586.06 175.962 586.367 176.697 586.367 177.645V181.309C586.372 182.111 586.484 182.718 586.703 183.129V183.262H584.422ZM582.555 181.692C582.888 181.692 583.195 181.619 583.477 181.473C583.758 181.322 583.966 181.121 584.102 180.871V179.418H583.258C582.128 179.418 581.526 179.809 581.453 180.59L581.445 180.723C581.445 181.004 581.544 181.236 581.742 181.418C581.94 181.601 582.211 181.692 582.555 181.692ZM590.484 183.262H588.219V171.262H590.484V183.262ZM594.734 183.262H592.469V171.262H594.734V183.262ZM600.492 183.418C599.253 183.418 598.242 183.038 597.461 182.278C596.685 181.517 596.297 180.504 596.297 179.239V179.02C596.297 178.171 596.461 177.413 596.789 176.746C597.117 176.074 597.581 175.559 598.18 175.199C598.784 174.835 599.471 174.653 600.242 174.653C601.398 174.653 602.307 175.017 602.969 175.746C603.635 176.476 603.969 177.509 603.969 178.848V179.77H598.586C598.659 180.322 598.878 180.765 599.242 181.098C599.612 181.431 600.078 181.598 600.641 181.598C601.51 181.598 602.19 181.283 602.68 180.653L603.789 181.895C603.451 182.374 602.992 182.749 602.414 183.02C601.836 183.285 601.195 183.418 600.492 183.418ZM600.234 176.481C599.786 176.481 599.422 176.632 599.141 176.934C598.865 177.236 598.688 177.668 598.609 178.231H601.75V178.051C601.74 177.551 601.604 177.166 601.344 176.895C601.083 176.619 600.714 176.481 600.234 176.481ZM607.961 172.731V174.809H609.406V176.465H607.961V180.684C607.961 180.996 608.021 181.22 608.141 181.356C608.26 181.491 608.49 181.559 608.828 181.559C609.078 181.559 609.299 181.541 609.492 181.504V183.215C609.049 183.351 608.594 183.418 608.125 183.418C606.542 183.418 605.734 182.619 605.703 181.02V176.465H604.469V174.809H605.703V172.731H607.961ZM616.852 175.731C617.451 175.012 618.203 174.653 619.109 174.653C620.943 174.653 621.872 175.718 621.898 177.848V183.262H619.641V177.91C619.641 177.426 619.536 177.069 619.328 176.84C619.12 176.606 618.773 176.489 618.289 176.489C617.628 176.489 617.148 176.744 616.852 177.254V183.262H614.594V171.262H616.852V175.731ZM627.492 183.418C626.253 183.418 625.242 183.038 624.461 182.278C623.685 181.517 623.297 180.504 623.297 179.239V179.02C623.297 178.171 623.461 177.413 623.789 176.746C624.117 176.074 624.581 175.559 625.18 175.199C625.784 174.835 626.471 174.653 627.242 174.653C628.398 174.653 629.307 175.017 629.969 175.746C630.635 176.476 630.969 177.509 630.969 178.848V179.77H625.586C625.659 180.322 625.878 180.765 626.242 181.098C626.612 181.431 627.078 181.598 627.641 181.598C628.51 181.598 629.19 181.283 629.68 180.653L630.789 181.895C630.451 182.374 629.992 182.749 629.414 183.02C628.836 183.285 628.195 183.418 627.492 183.418ZM627.234 176.481C626.786 176.481 626.422 176.632 626.141 176.934C625.865 177.236 625.688 177.668 625.609 178.231H628.75V178.051C628.74 177.551 628.604 177.166 628.344 176.895C628.083 176.619 627.714 176.481 627.234 176.481ZM637.008 176.926C636.701 176.884 636.43 176.864 636.195 176.864C635.341 176.864 634.781 177.153 634.516 177.731V183.262H632.258V174.809H634.391L634.453 175.817C634.906 175.041 635.534 174.653 636.336 174.653C636.586 174.653 636.82 174.686 637.039 174.754L637.008 176.926ZM641.836 183.418C640.596 183.418 639.586 183.038 638.805 182.278C638.029 181.517 637.641 180.504 637.641 179.239V179.02C637.641 178.171 637.805 177.413 638.133 176.746C638.461 176.074 638.924 175.559 639.523 175.199C640.128 174.835 640.815 174.653 641.586 174.653C642.742 174.653 643.651 175.017 644.312 175.746C644.979 176.476 645.312 177.509 645.312 178.848V179.77H639.93C640.003 180.322 640.221 180.765 640.586 181.098C640.956 181.431 641.422 181.598 641.984 181.598C642.854 181.598 643.534 181.283 644.023 180.653L645.133 181.895C644.794 182.374 644.336 182.749 643.758 183.02C643.18 183.285 642.539 183.418 641.836 183.418ZM641.578 176.481C641.13 176.481 640.766 176.632 640.484 176.934C640.208 177.236 640.031 177.668 639.953 178.231H643.094V178.051C643.083 177.551 642.948 177.166 642.688 176.895C642.427 176.619 642.057 176.481 641.578 176.481Z" fill="#9B9B9B"/>
<g filter="url(#filter0_d)">
<rect x="65.4194" y="45.1675" width="295.4" height="144.4" transform="rotate(8.16724 65.4194 45.1675)" fill="#0D0D0D" stroke="url(#paint0_linear)" stroke-width="1.6"/>
<path d="M83.564 70.2233C84.3031 70.3294 84.9425 70.6043 85.4822 71.0482C86.022 71.492 86.4063 72.0806 86.6351 72.8139C86.876 73.5381 86.9305 74.3595 86.7987 75.2781C86.6668 76.1967 86.3827 76.9749 85.9464 77.6127C85.5221 78.2415 84.9885 78.6929 84.3457 78.967C83.7029 79.2412 83.012 79.3252 82.2729 79.2191C81.5338 79.113 80.9253 78.8479 80.4474 78.4237C79.9815 77.9905 79.6802 77.4623 79.5433 76.8392L78.6796 82.8575L76.4464 82.537L78.3058 69.5818L80.5389 69.9023L80.2775 71.7236C80.5841 71.1642 81.0211 70.7474 81.5884 70.4732C82.1664 70.2005 82.8249 70.1172 83.564 70.2233ZM82.5875 72.0713C81.9118 71.9743 81.3188 72.1263 80.8087 72.5272C80.3107 72.9191 80.0056 73.5057 79.8934 74.2871C79.7828 75.0578 79.9106 75.7066 80.2768 76.2333C80.6551 76.7509 81.1821 77.0582 81.8579 77.1552C82.5547 77.2552 83.1462 77.1138 83.6321 76.731C84.1196 76.3376 84.4202 75.7449 84.5339 74.953C84.6475 74.1612 84.5258 73.5079 84.1686 72.9933C83.8114 72.4787 83.2844 72.1713 82.5875 72.0713ZM92.4613 71.5002C93.2004 71.6063 93.8089 71.8714 94.2868 72.2956C94.7647 72.7198 95.0721 73.2435 95.209 73.8666L95.4704 72.0452L97.6877 72.3635L96.4284 81.1376L94.2111 80.8193L94.4748 78.9822C94.1682 79.5416 93.7252 79.9629 93.1458 80.2462C92.5678 80.5188 91.9093 80.6021 91.1702 80.496C90.4311 80.39 89.7917 80.115 89.252 79.6712C88.7122 79.2273 88.3219 78.6433 88.081 77.919C87.8522 77.1858 87.8037 76.3598 87.9355 75.4412C88.0674 74.5227 88.3454 73.749 88.7697 73.1202C89.2061 72.4824 89.7457 72.0264 90.3885 71.7523C91.0313 71.4782 91.7222 71.3941 92.4613 71.5002ZM92.8786 73.5483C92.1817 73.4483 91.5895 73.595 91.102 73.9884C90.6145 74.3818 90.314 74.9744 90.2003 75.7663C90.0867 76.5582 90.2084 77.2114 90.5656 77.7261C90.9243 78.2301 91.4521 78.5322 92.1489 78.6322C92.8247 78.7292 93.4116 78.5817 93.9096 78.1898C94.4198 77.7889 94.7301 77.2031 94.8408 76.4323C94.9529 75.651 94.8198 75.0015 94.4415 74.4838C94.0753 73.9571 93.5543 73.6453 92.8786 73.5483ZM102.367 70.0286L100.685 81.7485L98.4522 81.428L100.134 69.7081L102.367 70.0286ZM106.621 70.639L104.939 82.3589L102.705 82.0384L104.388 70.3185L106.621 70.639ZM115.888 79.1134C115.856 79.3352 115.793 79.5848 115.699 79.8623L109.269 78.9395C109.189 79.7253 109.317 80.3311 109.655 80.7567C109.993 81.1823 110.452 81.4368 111.032 81.5201C111.55 81.5944 111.996 81.529 112.37 81.3241C112.755 81.1207 113.026 80.8094 113.183 80.3901L115.543 80.7288C115.339 81.3245 115.012 81.838 114.562 82.2691C114.112 82.7003 113.567 83.0099 112.925 83.198C112.295 83.3877 111.615 83.4303 110.886 83.3257C110.031 83.203 109.297 82.9144 108.683 82.4599C108.071 81.9949 107.629 81.398 107.356 80.6692C107.083 79.9404 107.013 79.1167 107.145 78.1982C107.277 77.2796 107.576 76.5089 108.042 75.8862C108.511 75.253 109.103 74.8046 109.82 74.541C110.536 74.2775 111.322 74.2071 112.178 74.3299C113.043 74.4541 113.772 74.742 114.365 75.1934C114.968 75.6463 115.398 76.2146 115.656 76.8981C115.926 77.5725 116.003 78.311 115.888 79.1134ZM113.67 78.569C113.805 77.8555 113.693 77.2845 113.334 76.8558C112.986 76.4287 112.516 76.1727 111.925 76.0879C111.323 76.0015 110.79 76.1135 110.325 76.424C109.86 76.7344 109.555 77.2456 109.41 77.9575L113.67 78.569ZM121.758 82.8171L121.483 84.7334L120.311 84.5652C119.33 84.4243 118.609 84.0784 118.149 83.5275C117.7 82.9781 117.555 82.1491 117.714 81.0404L118.259 77.2394L117.04 77.0644L117.31 75.1797L118.53 75.3547L118.841 73.1849L121.074 73.5054L120.763 75.6752L122.727 75.957L122.456 77.8417L120.492 77.5599L119.942 81.3926C119.882 81.8149 119.924 82.1227 120.069 82.3159C120.213 82.5091 120.486 82.6345 120.887 82.692L121.758 82.8171ZM129.719 79.2074L129.453 81.0604L122.722 80.0944L122.988 78.2414L129.719 79.2074ZM135.518 84.4685L138.674 78.2457L141.049 78.5867L136.544 86.8948L133.819 86.5039L131.832 77.2638L134.223 77.607L135.518 84.4685ZM149.96 84.0035C149.929 84.2253 149.866 84.4749 149.772 84.7524L143.342 83.8295C143.261 84.6154 143.39 85.2211 143.728 85.6468C144.065 86.0724 144.524 86.3269 145.105 86.4102C145.623 86.4844 146.068 86.4191 146.443 86.2142C146.827 86.0108 147.098 85.6995 147.256 85.2802L149.615 85.6189C149.411 86.2146 149.084 86.7281 148.635 87.1592C148.185 87.5903 147.639 87.9 146.998 88.0881C146.367 88.2778 145.688 88.3203 144.959 88.2158C144.104 88.093 143.37 87.8044 142.756 87.35C142.144 86.885 141.701 86.2881 141.429 85.5593C141.156 84.8305 141.086 84.0068 141.218 83.0882C141.35 82.1696 141.649 81.399 142.115 80.7763C142.583 80.143 143.176 79.6946 143.892 79.4311C144.609 79.1676 145.395 79.0972 146.25 79.2199C147.116 79.3442 147.845 79.632 148.438 80.0835C149.041 80.5364 149.471 81.1046 149.729 81.7881C149.998 82.4626 150.076 83.2011 149.96 84.0035ZM147.743 83.459C147.878 82.7456 147.766 82.1746 147.407 81.7459C147.059 81.3188 146.589 81.0628 145.998 80.9779C145.396 80.8916 144.863 81.0036 144.398 81.314C143.933 81.6245 143.628 82.1357 143.483 82.8476L147.743 83.459ZM155.168 80.4999C156.235 80.6529 157.051 81.0449 157.618 81.6758C158.185 82.3067 158.483 83.0823 158.513 84.0025L156.422 83.7025C156.398 83.268 156.257 82.9028 155.997 82.607C155.738 82.3112 155.371 82.1292 154.896 82.061C154.516 82.0064 154.207 82.0537 153.97 82.2029C153.733 82.3521 153.593 82.5798 153.549 82.886C153.514 83.1288 153.571 83.3363 153.718 83.5084C153.866 83.6804 154.061 83.8269 154.302 83.9477C154.543 84.0686 154.893 84.2211 155.351 84.4055C155.995 84.6488 156.511 84.8844 156.899 85.1125C157.298 85.3314 157.62 85.6416 157.864 86.0431C158.12 86.4354 158.205 86.9325 158.119 87.5344C158.011 88.284 157.629 88.8487 156.971 89.2284C156.323 89.6097 155.503 89.729 154.511 89.5866C153.371 89.423 152.494 89.0385 151.88 88.4332C151.268 87.8173 150.956 87.0236 150.945 86.0522L153.083 86.359C153.074 86.7995 153.214 87.1699 153.505 87.4703C153.798 87.7601 154.208 87.9429 154.736 88.0187C155.116 88.0732 155.419 88.0252 155.646 87.8744C155.873 87.7132 156.009 87.4847 156.051 87.1891C156.087 86.9357 156.027 86.7169 155.87 86.5328C155.724 86.3502 155.525 86.1977 155.273 86.0753C155.032 85.9545 154.682 85.8019 154.224 85.6176C153.59 85.3758 153.078 85.1515 152.688 84.9445C152.309 84.7286 151.997 84.4305 151.749 84.0502C151.513 83.6714 151.437 83.1863 151.522 82.5951C151.631 81.8348 152.01 81.2588 152.659 80.8671C153.308 80.4753 154.144 80.3529 155.168 80.4999ZM164.4 88.9369L164.125 90.8532L162.953 90.685C161.971 90.5441 161.25 90.1982 160.79 89.6473C160.341 89.0979 160.196 88.2689 160.355 87.1602L160.901 83.3592L159.681 83.1842L159.952 81.2995L161.171 81.4745L161.482 79.3047L163.716 79.6252L163.404 81.795L165.368 82.0769L165.098 83.9615L163.134 83.6797L162.584 87.5124C162.523 87.9348 162.565 88.2425 162.71 88.4357C162.854 88.6289 163.127 88.7543 163.529 88.8118L164.4 88.9369ZM167.099 79.7552C167.15 79.3962 167.319 79.124 167.604 78.9387C167.891 78.7427 168.24 78.6743 168.652 78.7334C169.064 78.7925 169.379 78.9564 169.599 79.2251C169.821 79.4832 169.906 79.7917 169.855 80.1507C169.805 80.4991 169.636 80.7713 169.349 80.9672C169.064 81.1526 168.716 81.2157 168.304 81.1566C167.892 81.0975 167.575 80.9389 167.354 80.6808C167.134 80.4122 167.049 80.1036 167.099 79.7552ZM169.224 82.6302L167.965 91.4043L165.732 91.0838L166.991 82.3097L169.224 82.6302ZM176.489 83.5436C177.502 83.689 178.262 84.1376 178.769 84.8891C179.275 85.6407 179.442 86.6183 179.269 87.8219L178.537 92.9217L176.32 92.6035L177.015 87.7571C177.116 87.0603 177.013 86.496 176.709 86.0644C176.406 85.6222 175.943 85.3564 175.32 85.267C174.687 85.1761 174.15 85.3092 173.711 85.6665C173.272 86.0237 172.997 86.5877 172.886 87.3585L172.218 92.0148L169.985 91.6943L171.244 82.9202L173.477 83.2407L173.225 84.9987C173.542 84.4407 173.988 84.036 174.563 83.7844C175.15 83.5238 175.792 83.4436 176.489 83.5436ZM185.214 84.812C185.953 84.918 186.562 85.1832 187.04 85.6074C187.517 86.0316 187.825 86.5552 187.962 87.1783L188.223 85.357L190.44 85.6752L189.177 94.481C189.06 95.294 188.792 95.999 188.372 96.5961C187.961 97.2053 187.407 97.6484 186.71 97.9255C186.024 98.2042 185.226 98.2783 184.318 98.148C183.051 97.9662 182.07 97.5182 181.375 96.8043C180.68 96.0903 180.323 95.2038 180.302 94.1449L182.504 94.4608C182.567 94.9225 182.76 95.3005 183.085 95.5948C183.418 95.9013 183.869 96.0954 184.44 96.1772C185.094 96.2712 185.65 96.1516 186.107 95.8185C186.563 95.496 186.847 94.9441 186.959 94.1628L187.228 92.2939C186.921 92.8534 186.478 93.2747 185.899 93.5579C185.321 93.8306 184.662 93.9139 183.923 93.8078C183.184 93.7017 182.544 93.4268 182.005 92.9829C181.465 92.5391 181.075 91.955 180.834 91.2308C180.605 90.4975 180.556 89.6716 180.688 88.753C180.82 87.8344 181.098 87.0607 181.522 86.432C181.959 85.7942 182.498 85.3382 183.141 85.0641C183.784 84.7899 184.475 84.7059 185.214 84.812ZM185.631 86.86C184.934 86.76 184.342 86.9067 183.855 87.3001C183.367 87.6935 183.067 88.2862 182.953 89.078C182.839 89.8699 182.961 90.5232 183.318 91.0378C183.677 91.5419 184.205 91.8439 184.902 91.9439C185.577 92.0409 186.164 91.8935 186.662 91.5016C187.173 91.1006 187.483 90.5148 187.594 89.744C187.706 88.9627 187.573 88.3132 187.194 87.7955C186.828 87.2688 186.307 86.957 185.631 86.86Z" fill="white"/>
<g clip-path="url(#clip0)">
<path d="M68.7437 166.202L69.9153 166.37L69.7896 167.246L68.6181 167.078L68.3367 169.038L67.2579 168.883L67.5393 166.923L63.6939 166.371L63.7846 165.739L68.4061 160.43L69.5487 160.594L68.7437 166.202ZM65.0376 165.67L67.665 166.047L68.2593 161.906L68.0984 162.12L65.0376 165.67ZM71.5775 165.182L72.6111 161.033L76.9378 161.654L76.7955 162.646L73.3793 162.156L72.7936 164.421C73.2423 164.237 73.7296 164.183 74.2555 164.258C75.0249 164.369 75.5992 164.712 75.9784 165.287C76.3581 165.858 76.4858 166.577 76.3615 167.443C76.2366 168.313 75.9022 168.966 75.3584 169.401C74.8189 169.832 74.1277 169.988 73.2848 169.867C72.5386 169.76 71.9592 169.465 71.5469 168.984C71.1345 168.503 70.9479 167.892 70.9871 167.152L72.0021 167.297C71.9985 167.79 72.1181 168.18 72.361 168.467C72.6044 168.751 72.9542 168.926 73.4105 168.991C73.9093 169.063 74.3242 168.949 74.6553 168.649C74.9903 168.35 75.2008 167.9 75.2868 167.301C75.3678 166.736 75.2781 166.262 75.0176 165.877C74.7615 165.489 74.3783 165.259 73.8679 165.185C73.4 165.118 73.018 165.168 72.7218 165.335L72.4043 165.526L71.5775 165.182ZM79.4256 167.664L78.6521 168.269L78.3358 170.473L77.2628 170.319L78.5414 161.411L79.6144 161.565L78.8411 166.953L79.5143 166.345L81.7652 164.561L83.0702 164.748L80.2522 167.019L82.4538 171.064L81.1952 170.884L79.4256 167.664ZM83.4456 171.207L84.6575 162.762L87.4183 163.158C88.3347 163.29 88.9958 163.578 89.4015 164.023C89.8111 164.468 89.9627 165.062 89.8561 165.805C89.7995 166.199 89.6372 166.533 89.3691 166.806C89.1015 167.076 88.7625 167.266 88.3519 167.377C88.7899 167.57 89.1145 167.865 89.3259 168.262C89.5416 168.656 89.614 169.101 89.5429 169.596C89.4342 170.353 89.1032 170.914 88.55 171.276C87.9967 171.639 87.2716 171.756 86.3745 171.627L83.4456 171.207ZM85.126 167.417L84.6898 170.456L86.5284 170.72C87.0466 170.794 87.4736 170.719 87.8097 170.495C88.1501 170.268 88.3542 169.918 88.4219 169.447C88.5678 168.43 88.0879 167.842 86.982 167.683L85.126 167.417ZM85.2542 166.524L86.9362 166.765C87.4234 166.835 87.8295 166.769 88.1544 166.567C88.4833 166.365 88.6776 166.056 88.7376 165.638C88.8042 165.174 88.7171 164.819 88.4764 164.571C88.2363 164.319 87.8397 164.154 87.2868 164.075L85.6396 163.838L85.2542 166.524Z" fill="#D8D8D8"/>
<line x1="101.788" y1="162.726" x2="99.5145" y2="178.564" stroke="#4A4A4A"/>
<path d="M113.287 172.595L114.459 172.763L114.333 173.639L113.162 173.471L112.88 175.431L111.801 175.276L112.083 173.316L108.237 172.764L108.328 172.132L112.95 166.822L114.092 166.986L113.287 172.595ZM109.581 172.063L112.209 172.44L112.803 168.299L112.642 168.513L109.581 172.063ZM116.121 171.575L117.155 167.426L121.481 168.047L121.339 169.039L117.923 168.548L117.337 170.814C117.786 170.63 118.273 170.576 118.799 170.651C119.569 170.762 120.143 171.105 120.522 171.68C120.902 172.251 121.029 172.97 120.905 173.836C120.78 174.706 120.446 175.359 119.902 175.794C119.363 176.225 118.671 176.381 117.828 176.26C117.082 176.153 116.503 175.858 116.09 175.377C115.678 174.895 115.492 174.285 115.531 173.544L116.546 173.69C116.542 174.183 116.662 174.573 116.905 174.86C117.148 175.144 117.498 175.318 117.954 175.384C118.453 175.455 118.868 175.341 119.199 175.042C119.534 174.742 119.744 174.293 119.83 173.694C119.911 173.129 119.822 172.655 119.561 172.27C119.305 171.882 118.922 171.651 118.411 171.578C117.944 171.511 117.562 171.561 117.265 171.727L116.948 171.919L116.121 171.575ZM127.503 173.854C127.322 175.11 126.974 176.013 126.457 176.563C125.94 177.112 125.225 177.321 124.313 177.19C123.412 177.061 122.788 176.668 122.44 176.01C122.093 175.348 121.997 174.423 122.152 173.234L122.357 171.801C122.535 170.56 122.882 169.669 123.398 169.127C123.914 168.585 124.63 168.38 125.546 168.512C126.455 168.642 127.082 169.03 127.427 169.676C127.773 170.317 127.865 171.246 127.702 172.462L127.503 173.854ZM126.64 172.232C126.771 171.324 126.738 170.644 126.542 170.194C126.347 169.74 125.973 169.473 125.42 169.393C124.871 169.315 124.441 169.464 124.13 169.842C123.82 170.219 123.599 170.837 123.468 171.694L123.221 173.411C123.09 174.323 123.125 175.017 123.325 175.492C123.53 175.963 123.901 176.237 124.438 176.314C124.968 176.391 125.39 176.242 125.704 175.869C126.022 175.496 126.25 174.87 126.388 173.99L126.64 172.232ZM131.585 178.116L132.797 169.671L135.181 170.013C135.916 170.118 136.542 170.374 137.06 170.78C137.578 171.186 137.946 171.71 138.166 172.353C138.389 172.997 138.447 173.708 138.339 174.486L138.262 175.025C138.148 175.821 137.893 176.497 137.497 177.052C137.106 177.608 136.601 178.005 135.983 178.244C135.368 178.483 134.681 178.552 133.922 178.451L131.585 178.116ZM133.779 170.747L132.829 177.365L134.001 177.533C134.859 177.656 135.565 177.485 136.117 177.02C136.673 176.555 137.022 175.83 137.163 174.844L137.234 174.351C137.372 173.392 137.252 172.615 136.876 172.02C136.504 171.422 135.905 171.06 135.078 170.934L133.779 170.747ZM139.386 175.974C139.475 175.359 139.674 174.823 139.984 174.366C140.298 173.91 140.689 173.58 141.157 173.375C141.628 173.17 142.14 173.107 142.693 173.187C143.547 173.309 144.195 173.704 144.636 174.371C145.081 175.039 145.233 175.864 145.092 176.846L145.081 176.921C144.993 177.532 144.797 178.064 144.491 178.518C144.19 178.968 143.801 179.297 143.325 179.505C142.853 179.713 142.335 179.777 141.771 179.696C140.92 179.574 140.272 179.179 139.827 178.511C139.386 177.844 139.236 177.023 139.376 176.049L139.386 175.974ZM140.447 176.256C140.347 176.952 140.427 177.534 140.688 178.001C140.952 178.469 141.355 178.742 141.896 178.82C142.441 178.898 142.905 178.748 143.287 178.368C143.67 177.985 143.916 177.409 144.026 176.64C144.125 175.951 144.041 175.371 143.773 174.898C143.51 174.423 143.108 174.146 142.566 174.068C142.037 173.992 141.579 174.142 141.194 174.516C140.809 174.891 140.56 175.471 140.447 176.256ZM151.755 179.501L153.65 174.877L154.723 175.031L151.995 181.045L151.125 180.92L150.282 175.945L148.115 180.488L147.245 180.363L146.324 173.826L147.392 173.979L147.953 178.855L150.089 174.366L150.953 174.49L151.755 179.501ZM156.834 175.334L156.756 176.128C157.322 175.594 157.991 175.382 158.765 175.493C160.091 175.684 160.652 176.528 160.449 178.026L159.854 182.173L158.781 182.019L159.377 177.866C159.438 177.413 159.382 177.064 159.208 176.818C159.038 176.572 158.738 176.419 158.309 176.357C157.961 176.307 157.642 176.356 157.353 176.504C157.063 176.652 156.823 176.866 156.633 177.147L155.991 181.618L154.918 181.464L155.819 175.189L156.834 175.334ZM162.638 182.572L161.565 182.418L162.844 173.51L163.917 173.664L162.638 182.572ZM164.535 179.583C164.623 178.968 164.823 178.432 165.133 177.976C165.447 177.52 165.838 177.189 166.305 176.984C166.776 176.779 167.289 176.717 167.841 176.796C168.696 176.919 169.344 177.313 169.785 177.98C170.23 178.648 170.381 179.473 170.241 180.455L170.23 180.53C170.142 181.141 169.945 181.674 169.64 182.127C169.338 182.577 168.95 182.906 168.474 183.114C168.002 183.322 167.484 183.386 166.919 183.305C166.068 183.183 165.421 182.788 164.976 182.121C164.535 181.453 164.384 180.633 164.524 179.658L164.535 179.583ZM165.596 179.865C165.496 180.561 165.576 181.143 165.836 181.611C166.101 182.079 166.504 182.352 167.045 182.429C167.59 182.508 168.054 182.357 168.436 181.978C168.818 181.595 169.065 181.018 169.175 180.249C169.274 179.561 169.189 178.98 168.922 178.508C168.659 178.032 168.256 177.755 167.715 177.677C167.185 177.601 166.728 177.751 166.342 178.126C165.957 178.501 165.708 179.08 165.596 179.865ZM175.009 184.348C174.965 184.215 174.947 183.988 174.953 183.665C174.38 184.111 173.748 184.285 173.055 184.186C172.437 184.097 171.953 183.85 171.605 183.445C171.261 183.036 171.128 182.563 171.205 182.026C171.299 181.372 171.619 180.901 172.165 180.613C172.716 180.321 173.442 180.24 174.343 180.369L175.387 180.519L175.458 180.026C175.512 179.651 175.442 179.337 175.25 179.084C175.058 178.828 174.743 178.668 174.306 178.606C173.923 178.551 173.589 178.601 173.302 178.758C173.015 178.914 172.852 179.129 172.812 179.404L171.734 179.249C171.779 178.936 171.932 178.65 172.194 178.391C172.461 178.13 172.795 177.941 173.199 177.825C173.606 177.71 174.038 177.685 174.494 177.751C175.217 177.854 175.757 178.117 176.115 178.54C176.473 178.958 176.615 179.486 176.539 180.122L176.125 183.01C176.042 183.586 176.05 184.055 176.148 184.416L176.135 184.509L175.009 184.348ZM173.346 183.274C173.682 183.323 174.014 183.282 174.341 183.151C174.667 183.02 174.918 182.825 175.093 182.566L175.278 181.279L174.437 181.158C173.122 180.969 172.41 181.26 172.3 182.029C172.251 182.366 172.326 182.645 172.523 182.866C172.72 183.088 172.994 183.224 173.346 183.274ZM177.793 181.492C177.931 180.529 178.27 179.788 178.81 179.27C179.351 178.748 179.99 178.539 180.729 178.645C181.464 178.751 182.009 179.086 182.367 179.65L182.836 176.379L183.909 176.533L182.63 185.442L181.644 185.3L181.689 184.62C181.184 185.084 180.549 185.261 179.783 185.151C179.056 185.047 178.506 184.664 178.131 184.003C177.76 183.342 177.644 182.532 177.781 181.573L177.793 181.492ZM178.848 181.767C178.746 182.479 178.813 183.057 179.049 183.501C179.286 183.945 179.663 184.205 180.181 184.279C180.861 184.377 181.402 184.143 181.803 183.577L182.217 180.694C181.981 180.056 181.53 179.69 180.865 179.594C180.339 179.519 179.9 179.663 179.548 180.027C179.196 180.391 178.963 180.971 178.848 181.767ZM188.194 184.541C188.235 184.251 188.157 184.011 187.96 183.821C187.766 183.627 187.406 183.434 186.877 183.239C186.352 183.046 185.941 182.845 185.644 182.636C185.35 182.428 185.142 182.201 185.019 181.955C184.901 181.709 184.863 181.431 184.908 181.122C184.982 180.607 185.261 180.203 185.745 179.91C186.233 179.617 186.815 179.519 187.492 179.616C188.203 179.718 188.753 179.985 189.141 180.415C189.533 180.846 189.688 181.348 189.606 181.92L188.527 181.765C188.569 181.472 188.48 181.2 188.259 180.951C188.042 180.703 187.744 180.552 187.365 180.498C186.975 180.442 186.657 180.483 186.412 180.621C186.167 180.76 186.025 180.966 185.986 181.241C185.949 181.5 186.023 181.71 186.209 181.871C186.395 182.032 186.746 182.21 187.263 182.407C187.783 182.604 188.198 182.809 188.506 183.023C188.815 183.237 189.032 183.474 189.156 183.732C189.285 183.987 189.326 184.283 189.278 184.62C189.197 185.18 188.908 185.599 188.411 185.875C187.914 186.147 187.308 186.231 186.593 186.129C186.09 186.056 185.658 185.904 185.297 185.67C184.936 185.437 184.668 185.146 184.493 184.797C184.322 184.445 184.264 184.084 184.317 183.712L185.39 183.866C185.358 184.229 185.46 184.535 185.696 184.786C185.937 185.034 186.277 185.19 186.718 185.253C187.124 185.311 187.461 185.276 187.728 185.149C187.999 185.018 188.154 184.816 188.194 184.541Z" fill="#D8D8D8"/>
</g>
<path d="M79.8369 107.111C79.5849 108.063 79.1194 108.759 78.4405 109.2C77.7663 109.638 76.9308 109.785 75.9338 109.642C74.8531 109.487 74.0416 108.975 73.4994 108.106C72.9613 107.238 72.7855 106.155 72.9719 104.856L73.0981 103.977C73.2201 103.126 73.4783 102.4 73.8724 101.798C74.2708 101.197 74.7732 100.765 75.3796 100.501C75.9866 100.234 76.6567 100.152 77.3897 100.258C78.3615 100.397 79.1016 100.781 79.6099 101.41C80.1187 102.034 80.3525 102.833 80.3112 103.806L79.0985 103.632C79.0984 102.888 78.9459 102.328 78.6409 101.951C78.3401 101.574 77.8756 101.341 77.2472 101.25C76.4765 101.14 75.8303 101.338 75.3087 101.844C74.7913 102.351 74.4572 103.131 74.3063 104.182L74.1791 105.068C74.0366 106.061 74.1307 106.88 74.4612 107.526C74.7917 108.172 75.3298 108.549 76.0754 108.656C76.7456 108.752 77.2804 108.675 77.6797 108.424C78.0839 108.17 78.3987 107.674 78.6242 106.937L79.8369 107.111ZM81.0795 106.719C81.1751 106.053 81.3909 105.473 81.727 104.978C82.0672 104.484 82.4906 104.126 82.997 103.903C83.5077 103.682 84.0625 103.614 84.6615 103.7C85.5872 103.832 86.2889 104.26 86.7666 104.983C87.2485 105.706 87.4131 106.6 87.2604 107.664L87.2487 107.745C87.1537 108.407 86.9406 108.984 86.6093 109.475C86.2829 109.962 85.8619 110.319 85.3465 110.544C84.8352 110.77 84.2738 110.839 83.6623 110.751C82.7407 110.619 82.039 110.191 81.5571 109.468C81.0794 108.745 80.9163 107.856 81.0678 106.801L81.0795 106.719ZM82.2284 107.025C82.1202 107.779 82.2071 108.409 82.4893 108.916C82.7756 109.423 83.212 109.718 83.7984 109.802C84.3891 109.887 84.8913 109.724 85.3051 109.313C85.7195 108.898 85.9865 108.274 86.1061 107.44C86.2132 106.695 86.1217 106.066 85.8318 105.554C85.5466 105.039 85.1109 104.739 84.5244 104.655C83.9505 104.572 83.4549 104.734 83.0375 105.14C82.6201 105.546 82.3504 106.175 82.2284 107.025ZM89.4923 111.46L88.3299 111.293L89.715 101.642L90.8775 101.809L89.4923 111.46ZM92.6214 111.909L91.459 111.742L92.8441 102.091L94.0065 102.258L92.6214 111.909ZM97.2907 112.707C96.3692 112.575 95.6626 112.166 95.1711 111.48C94.6802 110.789 94.5075 109.937 94.653 108.923L94.6837 108.71C94.7805 108.035 94.9945 107.453 95.3258 106.962C95.6618 106.467 96.0816 106.104 96.5851 105.873C97.0933 105.638 97.6176 105.559 98.158 105.637C99.0418 105.763 99.687 106.153 100.094 106.806C100.5 107.458 100.625 108.327 100.47 109.412L100.4 109.896L95.7947 109.235C95.7153 109.907 95.8322 110.478 96.1455 110.946C96.4636 111.411 96.9116 111.684 97.4897 111.767C97.9002 111.826 98.2599 111.792 98.5688 111.666C98.8777 111.539 99.1588 111.353 99.4121 111.107L100.043 111.762C99.3474 112.556 98.4301 112.871 97.2907 112.707ZM98.0209 106.592C97.5517 106.524 97.1333 106.64 96.7657 106.937C96.3986 107.231 96.1332 107.68 95.9695 108.285L99.375 108.774L99.3876 108.686C99.4389 108.091 99.3452 107.611 99.1067 107.248C98.8687 106.88 98.5068 106.661 98.0209 106.592ZM104.156 112.724C104.571 112.784 104.951 112.71 105.297 112.503C105.643 112.296 105.86 112.007 105.948 111.635L107.047 111.792C106.971 112.179 106.783 112.531 106.486 112.847C106.188 113.163 105.817 113.396 105.372 113.546C104.932 113.697 104.481 113.739 104.02 113.673C103.094 113.54 102.401 113.126 101.941 112.432C101.485 111.734 101.335 110.849 101.488 109.776L101.516 109.581C101.611 108.92 101.817 108.349 102.134 107.868C102.451 107.388 102.856 107.038 103.349 106.818C103.847 106.598 104.406 106.533 105.026 106.622C105.788 106.732 106.388 107.051 106.825 107.579C107.266 108.109 107.451 108.74 107.38 109.474L106.281 109.316C106.31 108.872 106.194 108.487 105.933 108.163C105.677 107.836 105.328 107.64 104.889 107.577C104.298 107.493 103.809 107.64 103.42 108.021C103.037 108.397 102.788 108.988 102.672 109.792L102.641 110.012C102.528 110.796 102.603 111.422 102.865 111.891C103.127 112.361 103.557 112.638 104.156 112.724ZM110.836 105.904L110.6 107.55L111.869 107.733L111.74 108.631L110.471 108.449L109.866 112.665C109.827 112.937 109.854 113.151 109.947 113.305C110.041 113.455 110.224 113.55 110.496 113.589C110.63 113.608 110.818 113.61 111.06 113.593L110.925 114.536C110.607 114.576 110.303 114.575 110.014 114.533C109.495 114.459 109.126 114.245 108.907 113.893C108.688 113.541 108.62 113.076 108.703 112.498L109.308 108.282L108.071 108.105L108.199 107.206L109.437 107.384L109.674 105.737L110.836 105.904ZM113.52 114.908L112.357 114.741L113.333 107.943L114.495 108.11L113.52 114.908ZM113.497 106.126C113.525 105.937 113.604 105.786 113.736 105.673C113.872 105.56 114.053 105.519 114.279 105.552C114.505 105.584 114.667 105.674 114.766 105.821C114.865 105.967 114.901 106.135 114.873 106.323C114.846 106.512 114.765 106.661 114.63 106.769C114.495 106.878 114.314 106.916 114.088 106.884C113.861 106.851 113.699 106.764 113.599 106.622C113.504 106.48 113.47 106.314 113.497 106.126ZM117.855 113.921L120.288 108.941L121.476 109.111L118.062 115.56L117.176 115.433L115.689 108.281L116.877 108.451L117.855 113.921ZM124.334 116.588C123.412 116.456 122.706 116.047 122.214 115.361C121.723 114.67 121.551 113.818 121.696 112.805L121.727 112.591C121.824 111.917 122.038 111.334 122.369 110.843C122.705 110.348 123.125 109.985 123.628 109.754C124.137 109.519 124.661 109.44 125.201 109.518C126.085 109.645 126.73 110.034 127.137 110.687C127.543 111.34 127.669 112.208 127.513 113.293L127.444 113.777L122.838 113.116C122.758 113.789 122.875 114.359 123.189 114.827C123.507 115.292 123.955 115.566 124.533 115.649C124.943 115.708 125.303 115.674 125.612 115.547C125.921 115.42 126.202 115.234 126.455 114.988L127.086 115.643C126.391 116.437 125.473 116.752 124.334 116.588ZM125.064 110.473C124.595 110.406 124.177 110.521 123.809 110.819C123.442 111.112 123.176 111.561 123.013 112.166L126.418 112.655L126.431 112.567C126.482 111.972 126.388 111.492 126.15 111.129C125.912 110.761 125.55 110.543 125.064 110.473ZM135.764 116.26C135.809 115.946 135.724 115.686 135.51 115.48C135.301 115.27 134.91 115.06 134.337 114.85C133.769 114.64 133.323 114.422 133.001 114.196C132.683 113.971 132.457 113.725 132.325 113.458C132.196 113.192 132.156 112.891 132.204 112.556C132.284 111.999 132.586 111.561 133.111 111.243C133.639 110.925 134.27 110.819 135.003 110.925C135.774 111.035 136.369 111.324 136.79 111.79C137.214 112.257 137.382 112.801 137.293 113.421L136.125 113.253C136.17 112.935 136.074 112.641 135.834 112.371C135.599 112.102 135.277 111.939 134.866 111.88C134.443 111.819 134.099 111.864 133.834 112.014C133.568 112.164 133.414 112.387 133.372 112.685C133.331 112.965 133.412 113.193 133.614 113.367C133.815 113.541 134.196 113.735 134.755 113.948C135.319 114.161 135.768 114.384 136.102 114.616C136.437 114.848 136.671 115.104 136.806 115.384C136.946 115.66 136.99 115.981 136.938 116.345C136.851 116.953 136.538 117.406 135.999 117.705C135.461 117.999 134.804 118.091 134.029 117.98C133.484 117.902 133.017 117.736 132.625 117.483C132.234 117.231 131.944 116.915 131.754 116.538C131.57 116.156 131.506 115.764 131.564 115.362L132.726 115.529C132.691 115.922 132.802 116.254 133.058 116.526C133.319 116.794 133.688 116.963 134.165 117.031C134.605 117.094 134.969 117.057 135.259 116.919C135.553 116.777 135.721 116.557 135.764 116.26ZM140.65 117.064L142.965 112.195L144.209 112.374L140.349 119.83C139.764 120.9 139.011 121.369 138.089 121.237L137.872 121.186L137.45 121.042L137.585 120.1L137.896 120.17C138.29 120.227 138.607 120.191 138.847 120.063C139.092 119.936 139.316 119.671 139.519 119.268L139.876 118.614L138.416 111.543L139.685 111.725L140.65 117.064ZM148.493 118.087C148.539 117.773 148.454 117.513 148.24 117.307C148.031 117.097 147.64 116.887 147.067 116.677C146.499 116.467 146.053 116.249 145.731 116.023C145.413 115.798 145.187 115.552 145.054 115.285C144.926 115.019 144.886 114.718 144.934 114.383C145.014 113.826 145.316 113.388 145.84 113.07C146.369 112.752 147 112.646 147.733 112.752C148.504 112.862 149.099 113.151 149.52 113.617C149.944 114.084 150.112 114.628 150.023 115.248L148.855 115.08C148.9 114.762 148.803 114.468 148.564 114.198C148.329 113.929 148.006 113.766 147.596 113.707C147.173 113.646 146.829 113.691 146.564 113.841C146.298 113.991 146.144 114.214 146.102 114.512C146.061 114.792 146.142 115.02 146.344 115.194C146.545 115.368 146.926 115.562 147.485 115.775C148.049 115.988 148.498 116.211 148.832 116.443C149.166 116.675 149.401 116.931 149.536 117.211C149.676 117.487 149.72 117.808 149.668 118.172C149.58 118.78 149.267 119.233 148.729 119.532C148.19 119.826 147.534 119.918 146.759 119.807C146.214 119.729 145.746 119.563 145.355 119.31C144.964 119.058 144.674 118.742 144.484 118.365C144.3 117.983 144.236 117.591 144.294 117.189L145.456 117.356C145.421 117.749 145.532 118.081 145.788 118.353C146.048 118.621 146.418 118.789 146.895 118.858C147.335 118.921 147.699 118.884 147.989 118.746C148.282 118.604 148.451 118.384 148.493 118.087ZM153.7 112.056L153.464 113.702L154.733 113.884L154.604 114.783L153.335 114.601L152.73 118.817C152.691 119.089 152.718 119.303 152.811 119.457C152.905 119.607 153.088 119.702 153.361 119.741C153.495 119.76 153.683 119.762 153.924 119.745L153.789 120.688C153.471 120.727 153.168 120.727 152.879 120.685C152.359 120.611 151.99 120.397 151.771 120.045C151.553 119.693 151.485 119.228 151.568 118.65L152.173 114.434L150.935 114.256L151.064 113.358L152.302 113.536L152.538 111.889L153.7 112.056ZM157.924 121.409C157.003 121.277 156.296 120.868 155.805 120.182C155.314 119.491 155.141 118.639 155.287 117.626L155.317 117.412C155.414 116.738 155.628 116.155 155.959 115.664C156.295 115.169 156.715 114.806 157.219 114.575C157.727 114.34 158.251 114.261 158.792 114.339C159.675 114.466 160.321 114.855 160.727 115.508C161.134 116.16 161.259 117.029 161.103 118.114L161.034 118.598L156.428 117.937C156.349 118.61 156.466 119.18 156.779 119.648C157.097 120.113 157.545 120.387 158.123 120.469C158.534 120.528 158.894 120.495 159.202 120.368C159.511 120.241 159.792 120.055 160.046 119.809L160.676 120.464C159.981 121.258 159.064 121.573 157.924 121.409ZM158.655 115.294C158.185 115.226 157.767 115.342 157.399 115.639C157.032 115.933 156.767 116.382 156.603 116.987L160.009 117.476L160.021 117.388C160.072 116.793 159.979 116.313 159.74 115.95C159.502 115.582 159.14 115.363 158.655 115.294ZM164.014 115.216L163.937 115.975C164.52 115.46 165.234 115.263 166.08 115.385C167.031 115.521 167.626 115.978 167.865 116.757C168.138 116.462 168.469 116.241 168.858 116.091C169.251 115.942 169.695 115.904 170.189 115.974C171.681 116.188 172.326 117.087 172.124 118.67L171.47 123.225L170.308 123.058L170.952 118.572C171.021 118.086 170.962 117.708 170.775 117.437C170.588 117.162 170.232 116.987 169.709 116.912C169.277 116.85 168.9 116.929 168.578 117.148C168.257 117.362 168.042 117.684 167.933 118.113L167.286 122.625L166.117 122.457L166.756 118.002C166.898 117.013 166.485 116.45 165.518 116.311C164.755 116.201 164.187 116.451 163.813 117.06L163.101 122.024L161.939 121.857L162.914 115.059L164.014 115.216ZM173.279 122.863C173.308 122.662 173.391 122.502 173.527 122.385C173.668 122.269 173.858 122.227 174.097 122.262C174.335 122.296 174.506 122.389 174.608 122.54C174.715 122.692 174.753 122.869 174.724 123.07C174.697 123.263 174.611 123.415 174.467 123.527C174.326 123.639 174.137 123.678 173.898 123.644C173.659 123.61 173.489 123.519 173.386 123.372C173.287 123.225 173.252 123.055 173.279 122.863ZM174.082 117.315C174.111 117.114 174.193 116.955 174.33 116.838C174.471 116.721 174.66 116.68 174.899 116.715C175.138 116.749 175.308 116.842 175.411 116.993C175.517 117.145 175.556 117.322 175.527 117.523C175.499 117.716 175.413 117.868 175.269 117.98C175.129 118.092 174.94 118.131 174.701 118.097C174.462 118.063 174.291 117.972 174.188 117.825C174.09 117.678 174.054 117.508 174.082 117.315ZM182.591 115.484L184.511 123.378L188.573 116.343L190.138 116.567L188.825 125.716L187.618 125.543L188.13 121.98L188.795 118.151L184.728 125.128L183.804 124.995L181.868 117.176L181.438 121.02L180.927 124.582L179.72 124.409L181.033 115.261L182.591 115.484ZM193.576 126.526C192.654 126.394 191.948 125.984 191.456 125.298C190.965 124.608 190.792 123.756 190.938 122.742L190.969 122.529C191.065 121.854 191.279 121.271 191.611 120.78C191.947 120.286 192.367 119.923 192.87 119.691C193.378 119.456 193.903 119.378 194.443 119.455C195.327 119.582 195.972 119.972 196.378 120.624C196.785 121.277 196.91 122.146 196.755 123.231L196.685 123.715L192.08 123.054C192 123.726 192.117 124.297 192.43 124.765C192.748 125.229 193.197 125.503 193.775 125.586C194.185 125.645 194.545 125.611 194.854 125.484C195.163 125.358 195.444 125.172 195.697 124.926L196.328 125.581C195.632 126.374 194.715 126.689 193.576 126.526ZM194.306 120.41C193.837 120.343 193.418 120.458 193.051 120.756C192.684 121.05 192.418 121.499 192.254 122.104L195.66 122.593L195.673 122.505C195.724 121.909 195.63 121.43 195.392 121.066C195.154 120.699 194.792 120.48 194.306 120.41ZM199.665 120.333L199.588 121.092C200.171 120.577 200.885 120.38 201.731 120.501C202.682 120.638 203.277 121.095 203.516 121.873C203.789 121.579 204.12 121.357 204.509 121.208C204.903 121.059 205.346 121.02 205.841 121.091C207.332 121.305 207.977 122.204 207.775 123.786L207.122 128.342L205.959 128.175L206.603 123.689C206.673 123.203 206.614 122.824 206.426 122.554C206.239 122.279 205.883 122.104 205.36 122.029C204.928 121.967 204.552 122.045 204.23 122.264C203.908 122.479 203.693 122.801 203.584 123.23L202.937 127.741L201.768 127.573L202.408 123.119C202.549 122.13 202.137 121.566 201.169 121.427C200.407 121.318 199.838 121.568 199.465 122.177L198.752 127.141L197.59 126.974L198.566 120.175L199.665 120.333ZM215.113 126.096C214.964 127.135 214.606 127.937 214.037 128.501C213.47 129.06 212.784 129.283 211.979 129.167C211.121 129.044 210.5 128.645 210.118 127.97L209.949 128.748L208.881 128.594L210.266 118.943L211.428 119.11L210.912 122.71C211.464 122.195 212.153 121.997 212.979 122.116C213.804 122.234 214.406 122.639 214.786 123.33C215.169 124.022 215.284 124.911 215.128 125.996L215.113 126.096ZM213.97 125.798C214.084 125.006 214.018 124.372 213.775 123.897C213.531 123.422 213.122 123.143 212.548 123.06C211.781 122.95 211.179 123.227 210.742 123.891L210.32 126.832C210.574 127.595 211.078 128.031 211.832 128.139C212.389 128.219 212.854 128.066 213.225 127.679C213.597 127.292 213.845 126.665 213.97 125.798ZM218.91 130.162C217.988 130.03 217.282 129.62 216.79 128.934C216.299 128.244 216.127 127.392 216.272 126.378L216.303 126.164C216.4 125.49 216.614 124.907 216.945 124.416C217.281 123.921 217.701 123.558 218.204 123.327C218.712 123.092 219.237 123.014 219.777 123.091C220.661 123.218 221.306 123.608 221.713 124.26C222.119 124.913 222.245 125.782 222.089 126.867L222.019 127.35L217.414 126.689C217.334 127.362 217.451 127.932 217.765 128.401C218.083 128.865 218.531 129.139 219.109 129.222C219.519 129.281 219.879 129.247 220.188 129.12C220.497 128.994 220.778 128.807 221.031 128.562L221.662 129.217C220.967 130.01 220.049 130.325 218.91 130.162ZM219.64 124.046C219.171 123.979 218.752 124.094 218.385 124.392C218.018 124.686 217.752 125.135 217.589 125.74L220.994 126.229L221.007 126.141C221.058 125.545 220.964 125.066 220.726 124.702C220.488 124.335 220.126 124.116 219.64 124.046ZM227.042 125.327C226.871 125.272 226.682 125.23 226.477 125.201C225.715 125.091 225.151 125.342 224.785 125.952L224.093 130.777L222.93 130.611L223.906 123.812L225.037 123.974L224.943 124.762C225.411 124.21 225.995 123.984 226.695 124.084C226.921 124.117 227.089 124.17 227.198 124.246L227.042 125.327ZM231.508 130.001C231.553 129.687 231.469 129.427 231.255 129.221C231.045 129.011 230.654 128.801 230.082 128.591C229.513 128.381 229.068 128.163 228.745 127.937C228.427 127.712 228.202 127.466 228.069 127.199C227.941 126.933 227.9 126.632 227.948 126.297C228.028 125.74 228.331 125.302 228.855 124.984C229.384 124.667 230.015 124.56 230.748 124.666C231.518 124.776 232.114 125.065 232.534 125.531C232.959 125.998 233.127 126.542 233.038 127.162L231.869 126.994C231.915 126.676 231.818 126.382 231.579 126.112C231.344 125.844 231.021 125.68 230.611 125.621C230.188 125.56 229.843 125.605 229.578 125.755C229.313 125.905 229.159 126.129 229.116 126.426C229.076 126.707 229.157 126.934 229.358 127.108C229.56 127.283 229.94 127.476 230.5 127.689C231.063 127.902 231.512 128.125 231.847 128.357C232.181 128.589 232.416 128.845 232.551 129.125C232.691 129.401 232.735 129.722 232.682 130.086C232.595 130.694 232.282 131.147 231.743 131.446C231.205 131.74 230.549 131.832 229.774 131.721C229.229 131.643 228.761 131.477 228.37 131.225C227.979 130.972 227.688 130.656 227.499 130.279C227.314 129.897 227.251 129.506 227.308 129.103L228.471 129.27C228.436 129.663 228.546 129.995 228.802 130.267C229.063 130.535 229.432 130.704 229.91 130.772C230.35 130.835 230.714 130.798 231.003 130.66C231.297 130.518 231.465 130.299 231.508 130.001ZM237.307 129.14C237.402 128.474 237.618 127.894 237.954 127.399C238.295 126.905 238.718 126.547 239.224 126.325C239.735 126.103 240.29 126.035 240.889 126.121C241.815 126.254 242.516 126.682 242.994 127.404C243.476 128.128 243.641 129.021 243.488 130.085L243.476 130.167C243.381 130.829 243.168 131.405 242.837 131.896C242.51 132.384 242.089 132.74 241.574 132.966C241.063 133.192 240.501 133.261 239.89 133.173C238.968 133.041 238.266 132.613 237.784 131.89C237.307 131.167 237.144 130.278 237.295 129.222L237.307 129.14ZM238.456 129.446C238.348 130.2 238.435 130.831 238.717 131.337C239.003 131.844 239.439 132.14 240.026 132.224C240.616 132.309 241.119 132.146 241.532 131.735C241.947 131.32 242.214 130.695 242.334 129.862C242.441 129.116 242.349 128.488 242.059 127.976C241.774 127.46 241.338 127.16 240.752 127.076C240.178 126.994 239.682 127.156 239.265 127.562C238.848 127.968 238.578 128.596 238.456 129.446ZM245.029 133.782L245.875 127.882L244.801 127.728L244.93 126.829L246.004 126.984L246.104 126.286C246.209 125.557 246.485 125.022 246.931 124.68C247.378 124.338 247.957 124.218 248.669 124.32C248.938 124.359 249.198 124.432 249.452 124.541L249.254 125.475C249.063 125.409 248.856 125.36 248.634 125.328C248.257 125.274 247.95 125.343 247.713 125.536C247.476 125.724 247.328 126.024 247.269 126.434L247.167 127.15L248.618 127.359L248.489 128.257L247.038 128.049L246.191 133.949L245.029 133.782ZM256.32 135.403C256.272 135.259 256.252 135.012 256.259 134.663C255.638 135.147 254.953 135.335 254.203 135.227C253.533 135.131 253.009 134.863 252.632 134.424C252.259 133.982 252.115 133.469 252.198 132.887C252.3 132.179 252.647 131.669 253.239 131.356C253.836 131.04 254.622 130.952 255.598 131.092L256.729 131.255L256.806 130.72C256.864 130.314 256.789 129.974 256.58 129.701C256.372 129.423 256.031 129.25 255.558 129.182C255.143 129.122 254.78 129.177 254.47 129.346C254.159 129.516 253.982 129.749 253.94 130.046L252.771 129.879C252.82 129.539 252.986 129.23 253.27 128.95C253.558 128.666 253.921 128.462 254.358 128.336C254.799 128.212 255.267 128.185 255.761 128.256C256.545 128.368 257.13 128.653 257.518 129.11C257.906 129.564 258.059 130.135 257.977 130.824L257.528 133.954C257.438 134.578 257.447 135.085 257.553 135.477L257.539 135.577L256.32 135.403ZM254.518 134.24C254.882 134.292 255.241 134.247 255.595 134.106C255.949 133.964 256.221 133.753 256.411 133.473L256.611 132.078L255.7 131.947C254.276 131.743 253.504 132.057 253.384 132.891C253.332 133.255 253.412 133.557 253.626 133.798C253.839 134.038 254.137 134.185 254.518 134.24ZM266.531 135.028C266.576 134.713 266.492 134.453 266.278 134.247C266.068 134.038 265.677 133.828 265.105 133.617C264.536 133.408 264.091 133.19 263.768 132.964C263.45 132.739 263.225 132.493 263.092 132.226C262.964 131.959 262.923 131.658 262.971 131.323C263.051 130.766 263.354 130.329 263.878 130.011C264.407 129.693 265.038 129.587 265.771 129.692C266.541 129.803 267.137 130.091 267.557 130.558C267.982 131.025 268.15 131.568 268.061 132.188L266.892 132.021C266.938 131.702 266.841 131.408 266.602 131.139C266.367 130.87 266.044 130.706 265.634 130.647C265.21 130.586 264.866 130.631 264.601 130.781C264.336 130.931 264.182 131.155 264.139 131.452C264.099 131.733 264.18 131.96 264.381 132.135C264.583 132.309 264.963 132.503 265.523 132.715C266.086 132.929 266.535 133.151 266.87 133.383C267.204 133.615 267.439 133.871 267.574 134.151C267.714 134.428 267.758 134.748 267.705 135.113C267.618 135.72 267.305 136.173 266.766 136.472C266.228 136.767 265.571 136.859 264.797 136.747C264.252 136.669 263.784 136.504 263.393 136.251C263.002 135.998 262.711 135.683 262.522 135.305C262.337 134.924 262.274 134.532 262.331 134.13L263.494 134.297C263.459 134.689 263.569 135.022 263.825 135.293C264.086 135.562 264.455 135.73 264.933 135.799C265.373 135.862 265.737 135.824 266.026 135.686C266.32 135.545 266.488 135.325 266.531 135.028ZM271.752 137.746C270.831 137.613 270.124 137.204 269.633 136.518C269.142 135.828 268.969 134.976 269.114 133.962L269.145 133.748C269.242 133.074 269.456 132.491 269.787 132C270.123 131.505 270.543 131.142 271.046 130.911C271.555 130.676 272.079 130.598 272.619 130.675C273.503 130.802 274.148 131.192 274.555 131.844C274.962 132.497 275.087 133.366 274.931 134.45L274.862 134.934L270.256 134.273C270.177 134.946 270.294 135.516 270.607 135.985C270.925 136.449 271.373 136.723 271.951 136.806C272.362 136.865 272.721 136.831 273.03 136.704C273.339 136.578 273.62 136.391 273.874 136.146L274.504 136.8C273.809 137.594 272.892 137.909 271.752 137.746ZM272.482 131.63C272.013 131.563 271.595 131.678 271.227 131.976C270.86 132.269 270.595 132.719 270.431 133.324L273.836 133.812L273.849 133.724C273.9 133.129 273.807 132.65 273.568 132.286C273.33 131.919 272.968 131.7 272.482 131.63ZM278.562 129.976L278.325 131.622L279.595 131.804L279.466 132.703L278.196 132.521L277.591 136.737C277.552 137.009 277.579 137.222 277.673 137.377C277.767 137.527 277.95 137.622 278.222 137.661C278.356 137.68 278.544 137.682 278.786 137.665L278.65 138.607C278.333 138.647 278.029 138.647 277.74 138.605C277.221 138.53 276.852 138.317 276.633 137.965C276.414 137.613 276.346 137.148 276.429 136.57L277.034 132.354L275.796 132.176L275.925 131.278L277.163 131.455L277.399 129.809L278.562 129.976ZM283.363 135.75C283.459 135.084 283.675 134.504 284.011 134.009C284.351 133.515 284.774 133.157 285.281 132.935C285.791 132.713 286.346 132.645 286.945 132.731C287.871 132.864 288.573 133.292 289.05 134.014C289.532 134.738 289.697 135.631 289.544 136.695L289.532 136.777C289.438 137.439 289.224 138.015 288.893 138.506C288.567 138.994 288.146 139.35 287.63 139.576C287.119 139.801 286.558 139.871 285.946 139.783C285.025 139.65 284.323 139.223 283.841 138.499C283.363 137.777 283.2 136.888 283.352 135.832L283.363 135.75ZM284.512 136.056C284.404 136.81 284.491 137.441 284.773 137.947C285.059 138.454 285.496 138.75 286.082 138.834C286.673 138.919 287.175 138.756 287.589 138.345C288.003 137.93 288.27 137.305 288.39 136.472C288.497 135.726 288.405 135.097 288.116 134.586C287.83 134.07 287.395 133.77 286.808 133.686C286.234 133.604 285.739 133.766 285.321 134.172C284.904 134.578 284.634 135.206 284.512 136.056ZM291.085 140.392L291.932 134.492L290.857 134.338L290.986 133.439L292.061 133.594L292.161 132.896C292.265 132.167 292.541 131.632 292.988 131.29C293.434 130.948 294.014 130.828 294.726 130.93C294.994 130.968 295.255 131.042 295.509 131.151L295.31 132.085C295.119 132.019 294.912 131.97 294.69 131.938C294.313 131.884 294.006 131.953 293.769 132.146C293.533 132.334 293.385 132.634 293.326 133.044L293.223 133.76L294.675 133.969L294.546 134.867L293.094 134.659L292.247 140.559L291.085 140.392ZM74.5749 124.472C74.5271 124.329 74.507 124.082 74.5144 123.733C73.8934 124.217 73.2081 124.405 72.4583 124.297C71.7881 124.201 71.2643 123.933 70.8869 123.494C70.5144 123.052 70.3699 122.539 70.4534 121.957C70.555 121.249 70.9019 120.739 71.494 120.426C72.0908 120.11 72.8773 120.022 73.8533 120.162L74.9843 120.325L75.0609 119.79C75.1192 119.384 75.044 119.044 74.8354 118.771C74.6273 118.493 74.2866 118.32 73.8132 118.252C73.3985 118.192 73.0358 118.247 72.7251 118.416C72.4144 118.586 72.2377 118.819 72.195 119.116L71.0263 118.948C71.075 118.609 71.2413 118.3 71.5252 118.02C71.8138 117.736 72.1766 117.532 72.6136 117.406C73.0547 117.282 73.5224 117.255 74.0167 117.326C74.8 117.438 75.3854 117.723 75.7729 118.18C76.161 118.634 76.3142 119.205 76.2323 119.894L75.7833 123.024C75.6937 123.648 75.702 124.155 75.8083 124.547L75.7939 124.647L74.5749 124.472ZM72.7731 123.31C73.1375 123.362 73.4966 123.317 73.8504 123.176C74.2042 123.034 74.4761 122.823 74.6659 122.543L74.8661 121.148L73.9551 121.017C72.5309 120.812 71.7589 121.127 71.6393 121.961C71.587 122.325 71.6676 122.627 71.8811 122.867C72.0946 123.108 72.3919 123.255 72.7731 123.31ZM80.2223 124.443C80.637 124.502 81.0174 124.429 81.3635 124.222C81.7095 124.015 81.9263 123.726 82.0139 123.353L83.1135 123.511C83.0367 123.898 82.8494 124.249 82.5518 124.566C82.2541 124.882 81.8829 125.115 81.4382 125.265C80.9976 125.416 80.5469 125.458 80.0862 125.392C79.1604 125.259 78.4674 124.845 78.007 124.151C77.5514 123.453 77.4006 122.567 77.5545 121.495L77.5825 121.3C77.6774 120.638 77.8834 120.067 78.2003 119.587C78.5172 119.107 78.9223 118.756 79.4156 118.536C79.913 118.317 80.4717 118.252 81.0917 118.341C81.854 118.45 82.4538 118.769 82.8909 119.298C83.3323 119.828 83.5174 120.459 83.4463 121.193L82.3467 121.035C82.3763 120.59 82.2605 120.206 81.9991 119.882C81.7426 119.554 81.3944 119.359 80.9546 119.296C80.364 119.211 79.8746 119.359 79.4866 119.739C79.1033 120.116 78.854 120.707 78.7386 121.511L78.707 121.731C78.5946 122.514 78.6693 123.141 78.9311 123.61C79.1929 124.079 79.6233 124.357 80.2223 124.443ZM86.958 125.41C87.3727 125.469 87.7531 125.395 88.0991 125.189C88.4452 124.982 88.662 124.692 88.7496 124.32L89.8492 124.478C89.7723 124.864 89.5851 125.216 89.2874 125.532C88.9898 125.849 88.6186 126.082 88.1739 126.232C87.7333 126.382 87.2826 126.425 86.8218 126.358C85.8961 126.226 85.2031 125.812 84.7427 125.117C84.2871 124.419 84.1363 123.534 84.2902 122.462L84.3181 122.267C84.4131 121.605 84.6191 121.034 84.936 120.554C85.2529 120.073 85.6579 119.723 86.1512 119.503C86.6487 119.284 87.2074 119.219 87.8273 119.308C88.5897 119.417 89.1895 119.736 89.6266 120.265C90.0679 120.794 90.253 121.426 90.1819 122.159L89.0824 122.002C89.112 121.557 88.9961 121.173 88.7348 120.849C88.4783 120.521 88.1301 120.326 87.6903 120.263C87.0996 120.178 86.6103 120.326 86.2223 120.706C85.839 121.083 85.5897 121.673 85.4742 122.478L85.4427 122.698C85.3302 123.481 85.4049 124.107 85.6668 124.577C85.9286 125.046 86.359 125.324 86.958 125.41ZM91.0376 123.302C91.1332 122.636 91.349 122.055 91.6851 121.561C92.0253 121.067 92.4487 120.708 92.9551 120.486C93.4657 120.264 94.0206 120.197 94.6196 120.282C95.5453 120.415 96.247 120.843 96.7247 121.566C97.2066 122.289 97.3712 123.183 97.2185 124.247L97.2068 124.328C97.1118 124.99 96.8987 125.567 96.5674 126.058C96.2409 126.545 95.82 126.902 95.3046 127.127C94.7933 127.353 94.2319 127.422 93.6203 127.334C92.6988 127.202 91.9971 126.774 91.5152 126.051C91.0375 125.328 90.8744 124.439 91.0259 123.383L91.0376 123.302ZM92.1865 123.608C92.0782 124.362 92.1652 124.992 92.4474 125.498C92.7337 126.006 93.1701 126.301 93.7565 126.385C94.3471 126.47 94.8494 126.307 95.2632 125.896C95.6776 125.481 95.9446 124.857 96.0642 124.023C96.1712 123.278 96.0798 122.649 95.7899 122.137C95.5047 121.622 95.0689 121.322 94.4825 121.238C93.9086 121.155 93.413 121.317 92.9956 121.723C92.5782 122.129 92.3085 122.757 92.1865 123.608ZM102.481 127.791C101.952 128.258 101.25 128.429 100.375 128.304C99.6502 128.2 99.1273 127.911 98.8063 127.437C98.49 126.96 98.389 126.308 98.5032 125.483L99.1381 121.059L100.3 121.226L99.6701 125.618C99.5222 126.649 99.8672 127.224 100.705 127.344C101.593 127.472 102.231 127.225 102.619 126.606L103.329 121.661L104.491 121.828L103.516 128.626L102.41 128.467L102.481 127.791ZM107.363 122.24L107.278 123.1C107.891 122.521 108.617 122.291 109.454 122.412C110.891 122.618 111.499 123.532 111.279 125.155L110.635 129.648L109.472 129.481L110.118 124.982C110.184 124.491 110.123 124.113 109.935 123.846C109.75 123.581 109.426 123.414 108.961 123.348C108.584 123.293 108.239 123.346 107.925 123.507C107.611 123.667 107.351 123.899 107.145 124.203L106.45 129.047L105.288 128.88L106.263 122.082L107.363 122.24ZM115.177 121.681L114.94 123.327L116.21 123.509L116.081 124.408L114.812 124.226L114.206 128.442C114.167 128.714 114.194 128.927 114.288 129.082C114.382 129.232 114.565 129.327 114.837 129.366C114.971 129.385 115.159 129.386 115.401 129.37L115.265 130.312C114.948 130.352 114.644 130.351 114.355 130.31C113.836 130.235 113.467 130.022 113.248 129.67C113.029 129.318 112.961 128.853 113.044 128.275L113.649 124.059L112.411 123.881L112.54 122.983L113.778 123.16L114.014 121.514L115.177 121.681ZM121.266 131.174L120.06 131L121.373 121.852L122.579 122.025L121.266 131.174ZM123.478 131.491L124.791 122.342L127.373 122.713C128.169 122.827 128.847 123.104 129.408 123.544C129.97 123.984 130.369 124.552 130.607 125.249C130.849 125.946 130.911 126.716 130.795 127.558L130.711 128.143C130.587 129.006 130.311 129.738 129.883 130.339C129.458 130.941 128.911 131.371 128.242 131.63C127.576 131.889 126.832 131.964 126.01 131.854L123.478 131.491ZM125.855 123.508L124.826 130.678L126.095 130.86C127.025 130.993 127.789 130.808 128.387 130.304C128.989 129.8 129.367 129.014 129.521 127.946L129.597 127.412C129.746 126.373 129.617 125.532 129.209 124.888C128.806 124.24 128.157 123.847 127.262 123.71L125.855 123.508ZM135.957 131.442C136.003 131.127 135.918 130.867 135.704 130.661C135.495 130.452 135.104 130.242 134.531 130.031C133.963 129.821 133.517 129.604 133.195 129.378C132.877 129.153 132.651 128.906 132.518 128.639C132.39 128.373 132.35 128.072 132.398 127.737C132.478 127.18 132.78 126.742 133.304 126.424C133.833 126.107 134.464 126.001 135.197 126.106C135.968 126.217 136.563 126.505 136.984 126.972C137.408 127.439 137.576 127.982 137.487 128.602L136.318 128.435C136.364 128.116 136.267 127.822 136.028 127.553C135.793 127.284 135.47 127.12 135.06 127.061C134.637 127 134.293 127.045 134.027 127.195C133.762 127.345 133.608 127.569 133.566 127.866C133.525 128.147 133.606 128.374 133.808 128.549C134.009 128.723 134.39 128.917 134.949 129.129C135.513 129.343 135.962 129.565 136.296 129.797C136.63 130.029 136.865 130.285 137 130.565C137.14 130.842 137.184 131.162 137.132 131.527C137.044 132.134 136.731 132.587 136.193 132.886C135.654 133.181 134.998 133.273 134.223 133.161C133.678 133.083 133.21 132.918 132.819 132.665C132.428 132.412 132.138 132.097 131.948 131.719C131.763 131.338 131.7 130.946 131.758 130.544L132.92 130.711C132.885 131.103 132.996 131.435 133.252 131.707C133.512 131.976 133.882 132.144 134.359 132.213C134.799 132.276 135.163 132.238 135.453 132.1C135.746 131.959 135.915 131.739 135.957 131.442ZM144.412 133.655C144.827 133.715 145.207 133.641 145.553 133.434C145.899 133.228 146.116 132.938 146.204 132.566L147.303 132.724C147.227 133.11 147.039 133.462 146.742 133.778C146.444 134.094 146.073 134.328 145.628 134.478C145.188 134.628 144.737 134.67 144.276 134.604C143.35 134.471 142.657 134.058 142.197 133.363C141.741 132.665 141.591 131.78 141.744 130.707L141.772 130.513C141.867 129.851 142.073 129.28 142.39 128.799C142.707 128.319 143.112 127.969 143.605 127.749C144.103 127.53 144.662 127.464 145.282 127.553C146.044 127.663 146.644 127.982 147.081 128.511C147.522 129.04 147.707 129.671 147.636 130.405L146.537 130.247C146.566 129.803 146.45 129.418 146.189 129.094C145.933 128.767 145.584 128.572 145.145 128.508C144.554 128.424 144.065 128.572 143.677 128.952C143.293 129.329 143.044 129.919 142.929 130.723L142.897 130.943C142.785 131.727 142.859 132.353 143.121 132.822C143.383 133.292 143.813 133.569 144.412 133.655ZM152.5 135.656C152.452 135.513 152.432 135.266 152.44 134.916C151.819 135.4 151.133 135.588 150.383 135.481C149.713 135.384 149.189 135.117 148.812 134.678C148.44 134.236 148.295 133.723 148.379 133.141C148.48 132.433 148.827 131.923 149.419 131.61C150.016 131.294 150.802 131.206 151.778 131.346L152.909 131.508L152.986 130.974C153.044 130.568 152.969 130.228 152.761 129.954C152.552 129.676 152.212 129.504 151.738 129.436C151.324 129.376 150.961 129.431 150.65 129.6C150.34 129.769 150.163 130.003 150.12 130.3L148.952 130.132C149 129.793 149.166 129.483 149.45 129.203C149.739 128.92 150.102 128.715 150.539 128.59C150.98 128.465 151.448 128.438 151.942 128.509C152.725 128.622 153.311 128.907 153.698 129.364C154.086 129.817 154.239 130.389 154.158 131.078L153.708 134.207C153.619 134.831 153.627 135.339 153.733 135.731L153.719 135.831L152.5 135.656ZM150.698 134.493C151.063 134.546 151.422 134.501 151.776 134.359C152.129 134.218 152.401 134.007 152.591 133.726L152.791 132.331L151.88 132.201C150.456 131.996 149.684 132.311 149.564 133.144C149.512 133.509 149.593 133.811 149.806 134.051C150.02 134.291 150.317 134.439 150.698 134.493ZM157.378 129.418L157.293 130.278C157.906 129.699 158.631 129.469 159.469 129.59C160.906 129.796 161.514 130.71 161.294 132.333L160.65 136.826L159.487 136.659L160.133 132.16C160.199 131.669 160.138 131.291 159.949 131.024C159.765 130.759 159.441 130.592 158.976 130.526C158.599 130.471 158.253 130.525 157.94 130.685C157.626 130.845 157.366 131.077 157.16 131.381L156.465 136.225L155.302 136.058L156.278 129.26L157.378 129.418ZM167.663 130.894L167.587 131.652C168.169 131.137 168.884 130.941 169.73 131.062C170.681 131.199 171.276 131.656 171.514 132.434C171.788 132.14 172.119 131.918 172.508 131.769C172.901 131.62 173.345 131.581 173.839 131.652C175.33 131.866 175.975 132.764 175.774 134.347L175.12 138.903L173.958 138.736L174.601 134.249C174.671 133.764 174.612 133.385 174.424 133.115C174.237 132.84 173.882 132.665 173.358 132.59C172.927 132.528 172.55 132.606 172.228 132.825C171.906 133.04 171.691 133.362 171.583 133.791L170.935 138.302L169.767 138.134L170.406 133.679C170.548 132.691 170.135 132.127 169.167 131.988C168.405 131.879 167.837 132.129 167.463 132.738L166.751 137.701L165.588 137.535L166.564 130.736L167.663 130.894ZM181.076 139.757C181.029 139.614 181.008 139.367 181.016 139.018C180.395 139.501 179.71 139.69 178.96 139.582C178.29 139.486 177.766 139.218 177.388 138.779C177.016 138.337 176.871 137.824 176.955 137.242C177.057 136.534 177.403 136.024 177.995 135.711C178.592 135.395 179.379 135.307 180.355 135.447L181.486 135.609L181.562 135.075C181.621 134.669 181.546 134.329 181.337 134.055C181.129 133.778 180.788 133.605 180.315 133.537C179.9 133.477 179.537 133.532 179.227 133.701C178.916 133.87 178.739 134.104 178.697 134.401L177.528 134.233C177.577 133.894 177.743 133.585 178.027 133.305C178.315 133.021 178.678 132.817 179.115 132.691C179.556 132.567 180.024 132.54 180.518 132.611C181.302 132.723 181.887 133.008 182.274 133.465C182.663 133.919 182.816 134.49 182.734 135.179L182.285 138.308C182.195 138.933 182.204 139.44 182.31 139.832L182.295 139.932L181.076 139.757ZM179.275 138.595C179.639 138.647 179.998 138.602 180.352 138.461C180.706 138.319 180.978 138.108 181.167 137.827L181.368 136.433L180.457 136.302C179.032 136.097 178.26 136.412 178.141 137.246C178.089 137.61 178.169 137.912 178.383 138.152C178.596 138.393 178.893 138.54 179.275 138.595ZM186.228 137.284L185.39 137.94L185.047 140.327L183.885 140.161L185.27 130.509L186.433 130.676L185.595 136.513L186.324 135.855L188.763 133.922L190.176 134.125L187.124 136.585L189.509 140.968L188.145 140.772L186.228 137.284ZM193.078 141.608C192.157 141.476 191.45 141.067 190.959 140.381C190.468 139.69 190.295 138.838 190.441 137.824L190.471 137.611C190.568 136.936 190.782 136.354 191.113 135.863C191.449 135.368 191.869 135.005 192.373 134.774C192.881 134.539 193.405 134.46 193.946 134.538C194.829 134.664 195.475 135.054 195.881 135.707C196.288 136.359 196.413 137.228 196.257 138.313L196.188 138.797L191.582 138.136C191.503 138.808 191.62 139.379 191.933 139.847C192.251 140.312 192.699 140.585 193.277 140.668C193.688 140.727 194.048 140.693 194.356 140.567C194.665 140.44 194.946 140.254 195.2 140.008L195.83 140.663C195.135 141.457 194.218 141.772 193.078 141.608ZM193.809 135.493C193.339 135.425 192.921 135.541 192.553 135.838C192.186 136.132 191.921 136.581 191.757 137.186L195.163 137.675L195.175 137.587C195.227 136.992 195.133 136.512 194.894 136.149C194.656 135.781 194.294 135.562 193.809 135.493ZM203.08 134.297L202.844 135.943L204.113 136.125L203.984 137.024L202.715 136.841L202.109 141.057C202.07 141.33 202.098 141.543 202.191 141.698C202.285 141.848 202.468 141.943 202.74 141.982C202.874 142.001 203.062 142.002 203.304 141.986L203.168 142.928C202.851 142.968 202.547 142.967 202.258 142.926C201.739 142.851 201.37 142.638 201.151 142.286C200.932 141.934 200.864 141.469 200.947 140.891L201.552 136.675L200.314 136.497L200.443 135.598L201.681 135.776L201.917 134.13L203.08 134.297ZM206.52 137.311C207.126 136.752 207.842 136.532 208.667 136.65C210.104 136.857 210.712 137.771 210.492 139.394L209.848 143.887L208.685 143.72L209.331 139.221C209.397 138.73 209.336 138.352 209.148 138.085C208.963 137.819 208.639 137.653 208.174 137.586C207.797 137.532 207.452 137.585 207.138 137.746C206.824 137.906 206.564 138.138 206.358 138.442L205.663 143.286L204.501 143.119L205.886 133.468L207.048 133.635L206.52 137.311ZM214.391 144.667C213.47 144.535 212.763 144.126 212.272 143.439C211.781 142.749 211.608 141.897 211.754 140.883L211.784 140.67C211.881 139.995 212.095 139.412 212.426 138.921C212.762 138.427 213.182 138.064 213.686 137.832C214.194 137.598 214.718 137.519 215.258 137.596C216.142 137.723 216.787 138.113 217.194 138.766C217.601 139.418 217.726 140.287 217.57 141.372L217.501 141.856L212.895 141.195C212.816 141.867 212.933 142.438 213.246 142.906C213.564 143.37 214.012 143.644 214.59 143.727C215.001 143.786 215.36 143.752 215.669 143.626C215.978 143.499 216.259 143.313 216.513 143.067L217.143 143.722C216.448 144.515 215.531 144.831 214.391 144.667ZM215.121 138.551C214.652 138.484 214.234 138.599 213.866 138.897C213.499 139.191 213.234 139.64 213.07 140.245L216.475 140.734L216.488 140.646C216.539 140.05 216.446 139.571 216.207 139.207C215.969 138.84 215.607 138.621 215.121 138.551ZM219.675 145.297L218.512 145.13L219.488 138.332L220.65 138.498L219.675 145.297ZM219.652 136.515C219.68 136.326 219.759 136.175 219.891 136.062C220.027 135.949 220.208 135.908 220.434 135.941C220.66 135.973 220.822 136.063 220.921 136.21C221.02 136.356 221.056 136.524 221.029 136.712C221.001 136.901 220.92 137.049 220.785 137.158C220.65 137.267 220.469 137.305 220.243 137.273C220.016 137.24 219.854 137.153 219.754 137.01C219.659 136.869 219.625 136.703 219.652 136.515ZM225.653 140.281C225.481 140.226 225.293 140.184 225.087 140.155C224.325 140.046 223.761 140.296 223.396 140.906L222.703 145.732L221.541 145.565L222.516 138.766L223.647 138.929L223.554 139.717C224.022 139.164 224.606 138.938 225.305 139.038C225.532 139.071 225.699 139.125 225.808 139.2L225.653 140.281ZM231.938 146.217C232.353 146.277 232.733 146.203 233.079 145.996C233.425 145.789 233.642 145.5 233.73 145.127L234.829 145.285C234.753 145.672 234.565 146.023 234.268 146.34C233.97 146.656 233.599 146.889 233.154 147.039C232.714 147.19 232.263 147.232 231.802 147.166C230.876 147.033 230.183 146.619 229.723 145.925C229.267 145.227 229.117 144.341 229.27 143.269L229.298 143.074C229.393 142.412 229.599 141.841 229.916 141.361C230.233 140.881 230.638 140.53 231.132 140.311C231.629 140.091 232.188 140.026 232.808 140.115C233.57 140.224 234.17 140.544 234.607 141.072C235.048 141.602 235.233 142.233 235.162 142.967L234.063 142.809C234.092 142.364 233.976 141.98 233.715 141.656C233.459 141.329 233.11 141.133 232.671 141.07C232.08 140.985 231.591 141.133 231.203 141.514C230.819 141.89 230.57 142.481 230.455 143.285L230.423 143.505C230.311 144.288 230.385 144.915 230.647 145.384C230.909 145.853 231.339 146.131 231.938 146.217ZM236.018 144.109C236.113 143.443 236.329 142.863 236.665 142.368C237.006 141.874 237.429 141.516 237.935 141.293C238.446 141.072 239.001 141.004 239.6 141.09C240.526 141.223 241.227 141.65 241.705 142.373C242.187 143.096 242.352 143.99 242.199 145.054L242.187 145.136C242.092 145.797 241.879 146.374 241.548 146.865C241.221 147.353 240.8 147.709 240.285 147.934C239.774 148.16 239.212 148.229 238.601 148.141C237.679 148.009 236.977 147.581 236.495 146.858C236.018 146.136 235.855 145.246 236.006 144.191L236.018 144.109ZM237.167 144.415C237.059 145.169 237.146 145.799 237.428 146.306C237.714 146.813 238.15 147.109 238.737 147.193C239.327 147.277 239.83 147.114 240.243 146.704C240.658 146.288 240.925 145.664 241.045 144.831C241.152 144.085 241.06 143.456 240.77 142.944C240.485 142.429 240.049 142.129 239.463 142.045C238.889 141.963 238.393 142.124 237.976 142.531C237.559 142.937 237.289 143.565 237.167 144.415ZM244.431 148.85L243.268 148.683L244.653 139.032L245.816 139.199L244.431 148.85ZM247.56 149.299L246.397 149.132L247.783 139.481L248.945 139.648L247.56 149.299ZM252.229 150.097C251.308 149.965 250.601 149.556 250.11 148.87C249.619 148.179 249.446 147.327 249.591 146.314L249.622 146.1C249.719 145.426 249.933 144.843 250.264 144.352C250.6 143.857 251.02 143.494 251.523 143.263C252.032 143.028 252.556 142.949 253.096 143.027C253.98 143.154 254.625 143.543 255.032 144.196C255.438 144.849 255.564 145.717 255.408 146.802L255.339 147.286L250.733 146.625C250.654 147.298 250.771 147.868 251.084 148.336C251.402 148.801 251.85 149.075 252.428 149.158C252.839 149.217 253.198 149.183 253.507 149.056C253.816 148.929 254.097 148.743 254.35 148.497L254.981 149.152C254.286 149.946 253.368 150.261 252.229 150.097ZM252.959 143.982C252.49 143.915 252.072 144.03 251.704 144.328C251.337 144.621 251.072 145.07 250.908 145.675L254.313 146.164L254.326 146.076C254.377 145.481 254.284 145.001 254.045 144.638C253.807 144.27 253.445 144.052 252.959 143.982ZM259.095 150.114C259.509 150.174 259.89 150.1 260.236 149.893C260.582 149.687 260.799 149.397 260.886 149.025L261.986 149.183C261.909 149.569 261.722 149.921 261.424 150.237C261.126 150.554 260.755 150.787 260.31 150.937C259.87 151.087 259.419 151.129 258.958 151.063C258.033 150.93 257.34 150.517 256.879 149.822C256.424 149.124 256.273 148.239 256.427 147.166L256.455 146.972C256.55 146.31 256.756 145.739 257.073 145.258C257.389 144.778 257.795 144.428 258.288 144.208C258.785 143.989 259.344 143.924 259.964 144.012C260.726 144.122 261.326 144.441 261.763 144.97C262.205 145.499 262.39 146.131 262.319 146.864L261.219 146.706C261.249 146.262 261.133 145.877 260.871 145.554C260.615 145.226 260.267 145.031 259.827 144.968C259.236 144.883 258.747 145.031 258.359 145.411C257.976 145.788 257.726 146.378 257.611 147.183L257.579 147.402C257.467 148.186 257.542 148.812 257.803 149.281C258.065 149.751 258.496 150.028 259.095 150.114ZM265.774 143.295L265.538 144.941L266.807 145.123L266.678 146.021L265.409 145.839L264.804 150.055C264.765 150.328 264.792 150.541 264.885 150.695C264.979 150.846 265.162 150.94 265.434 150.979C265.569 150.999 265.756 151 265.998 150.983L265.863 151.926C265.545 151.966 265.242 151.965 264.953 151.924C264.433 151.849 264.064 151.636 263.845 151.284C263.627 150.932 263.559 150.467 263.642 149.888L264.247 145.672L263.009 145.495L263.138 144.596L264.376 144.774L264.612 143.128L265.774 143.295ZM268.458 152.298L267.296 152.131L268.271 145.333L269.434 145.5L268.458 152.298ZM268.436 143.516C268.463 143.328 268.542 143.177 268.674 143.063C268.81 142.95 268.991 142.91 269.217 142.942C269.443 142.975 269.606 143.064 269.704 143.211C269.803 143.358 269.839 143.525 269.812 143.714C269.785 143.902 269.704 144.051 269.568 144.16C269.433 144.268 269.252 144.307 269.026 144.274C268.8 144.242 268.637 144.154 268.538 144.012C268.443 143.87 268.409 143.705 268.436 143.516ZM272.794 151.311L275.227 146.331L276.414 146.502L273.001 152.95L272.115 152.823L270.628 145.671L271.815 145.842L272.794 151.311ZM279.272 153.979C278.351 153.846 277.644 153.437 277.153 152.751C276.662 152.061 276.489 151.209 276.635 150.195L276.665 149.981C276.762 149.307 276.976 148.724 277.307 148.233C277.643 147.738 278.063 147.375 278.567 147.144C279.075 146.909 279.599 146.831 280.14 146.908C281.023 147.035 281.669 147.425 282.075 148.077C282.482 148.73 282.607 149.599 282.451 150.683L282.382 151.167L277.776 150.506C277.697 151.179 277.814 151.749 278.127 152.218C278.445 152.682 278.893 152.956 279.471 153.039C279.882 153.098 280.242 153.064 280.55 152.937C280.859 152.811 281.14 152.624 281.394 152.379L282.024 153.033C281.329 153.827 280.412 154.142 279.272 153.979ZM280.003 147.863C279.533 147.796 279.115 147.911 278.747 148.209C278.38 148.502 278.115 148.952 277.951 149.557L281.357 150.045L281.369 149.957C281.42 149.362 281.327 148.883 281.088 148.519C280.85 148.152 280.488 147.933 280.003 147.863ZM287.056 154.968L287.903 149.068L286.829 148.913L286.958 148.015L288.032 148.169L288.132 147.472C288.237 146.743 288.513 146.207 288.959 145.865C289.406 145.523 289.985 145.403 290.697 145.506C290.965 145.544 291.226 145.618 291.48 145.727L291.282 146.66C291.09 146.594 290.884 146.545 290.662 146.514C290.285 146.46 289.978 146.529 289.741 146.721C289.504 146.91 289.356 147.209 289.297 147.62L289.195 148.336L290.646 148.544L290.517 149.443L289.066 149.234L288.219 155.134L287.056 154.968ZM293.611 156.036C292.689 155.904 291.983 155.495 291.491 154.809C291 154.118 290.828 153.266 290.973 152.253L291.004 152.039C291.101 151.365 291.315 150.782 291.646 150.291C291.982 149.796 292.402 149.433 292.905 149.202C293.413 148.967 293.938 148.888 294.478 148.966C295.362 149.093 296.007 149.482 296.414 150.135C296.82 150.788 296.946 151.656 296.79 152.741L296.72 153.225L292.115 152.564C292.035 153.237 292.152 153.807 292.466 154.275C292.784 154.74 293.232 155.014 293.81 155.097C294.22 155.156 294.58 155.122 294.889 154.995C295.198 154.868 295.479 154.682 295.732 154.436L296.363 155.091C295.667 155.885 294.75 156.2 293.611 156.036ZM294.341 149.921C293.872 149.854 293.453 149.969 293.086 150.267C292.719 150.56 292.453 151.01 292.29 151.614L295.695 152.103L295.708 152.015C295.759 151.42 295.665 150.94 295.427 150.577C295.189 150.209 294.827 149.991 294.341 149.921ZM300.434 157.016C299.513 156.884 298.806 156.474 298.315 155.788C297.824 155.098 297.651 154.246 297.797 153.232L297.827 153.018C297.924 152.344 298.138 151.761 298.469 151.27C298.806 150.775 299.225 150.412 299.729 150.181C300.237 149.946 300.761 149.868 301.302 149.945C302.185 150.072 302.831 150.462 303.237 151.114C303.644 151.767 303.769 152.636 303.613 153.721L303.544 154.204L298.938 153.543C298.859 154.216 298.976 154.786 299.289 155.255C299.607 155.719 300.055 155.993 300.633 156.076C301.044 156.135 301.404 156.101 301.712 155.974C302.021 155.848 302.302 155.661 302.556 155.416L303.186 156.071C302.491 156.864 301.574 157.179 300.434 157.016ZM301.165 150.9C300.695 150.833 300.277 150.948 299.909 151.246C299.542 151.54 299.277 151.989 299.113 152.594L302.519 153.083L302.531 152.995C302.583 152.399 302.489 151.92 302.25 151.556C302.012 151.189 301.65 150.97 301.165 150.9ZM305.718 157.646L304.555 157.479L305.941 147.828L307.103 147.995L305.718 157.646ZM308.847 158.095L307.684 157.928L308.66 151.13L309.823 151.296L308.847 158.095ZM308.825 149.313C308.852 149.124 308.931 148.973 309.063 148.86C309.199 148.747 309.38 148.706 309.606 148.739C309.832 148.771 309.995 148.861 310.093 149.007C310.192 149.154 310.228 149.322 310.201 149.51C310.174 149.699 310.093 149.847 309.957 149.956C309.822 150.065 309.641 150.103 309.415 150.071C309.189 150.038 309.026 149.951 308.927 149.808C308.832 149.666 308.798 149.501 308.825 149.313ZM312.788 151.722L312.703 152.582C313.317 152.003 314.042 151.774 314.88 151.894C316.317 152.1 316.925 153.015 316.705 154.638L316.06 159.13L314.898 158.963L315.543 154.464C315.609 153.974 315.548 153.595 315.36 153.329C315.176 153.063 314.851 152.897 314.386 152.83C314.009 152.776 313.664 152.829 313.35 152.989C313.037 153.149 312.777 153.381 312.571 153.685L311.875 158.53L310.713 158.363L311.689 151.564L312.788 151.722ZM318.033 155.886C318.185 154.826 318.551 154.02 319.13 153.466C319.711 152.908 320.405 152.687 321.213 152.803C322.043 152.922 322.648 153.308 323.029 153.961L323.193 153.215L324.255 153.368L323.303 160.003C323.177 160.883 322.815 161.538 322.219 161.97C321.627 162.402 320.891 162.555 320.011 162.429C319.521 162.359 319.057 162.185 318.618 161.908C318.179 161.632 317.862 161.293 317.667 160.893L318.37 160.282C318.78 160.97 319.345 161.365 320.066 161.469C320.631 161.55 321.094 161.454 321.454 161.18C321.818 160.908 322.041 160.482 322.124 159.904L322.208 159.32C321.666 159.789 320.993 159.966 320.189 159.851C319.393 159.737 318.794 159.324 318.392 158.612C317.994 157.901 317.874 156.992 318.033 155.886ZM319.182 156.186C319.072 156.952 319.143 157.578 319.394 158.063C319.646 158.544 320.054 158.825 320.62 158.906C321.353 159.011 321.939 158.755 322.378 158.139L322.823 155.035C322.56 154.334 322.073 153.933 321.361 153.831C320.795 153.75 320.322 153.906 319.94 154.3C319.559 154.694 319.306 155.323 319.182 156.186ZM329.256 159.184C329.301 158.869 329.217 158.609 329.003 158.403C328.793 158.194 328.402 157.984 327.83 157.773C327.261 157.563 326.816 157.346 326.493 157.12C326.175 156.895 325.95 156.648 325.817 156.381C325.689 156.115 325.648 155.814 325.696 155.479C325.776 154.922 326.079 154.484 326.603 154.166C327.132 153.849 327.763 153.743 328.496 153.848C329.266 153.959 329.862 154.247 330.282 154.714C330.707 155.181 330.875 155.724 330.786 156.344L329.617 156.177C329.663 155.858 329.566 155.564 329.327 155.295C329.092 155.026 328.769 154.862 328.359 154.803C327.936 154.742 327.591 154.787 327.326 154.937C327.061 155.087 326.907 155.311 326.864 155.608C326.824 155.889 326.905 156.116 327.106 156.291C327.308 156.465 327.688 156.659 328.248 156.871C328.811 157.085 329.26 157.307 329.595 157.539C329.929 157.771 330.164 158.027 330.299 158.307C330.439 158.584 330.483 158.904 330.43 159.269C330.343 159.876 330.03 160.329 329.491 160.628C328.953 160.923 328.297 161.015 327.522 160.903C326.977 160.825 326.509 160.66 326.118 160.407C325.727 160.154 325.436 159.839 325.247 159.461C325.062 159.08 324.999 158.688 325.056 158.286L326.219 158.453C326.184 158.845 326.294 159.177 326.55 159.449C326.811 159.718 327.18 159.886 327.658 159.955C328.098 160.018 328.462 159.98 328.751 159.842C329.045 159.7 329.213 159.481 329.256 159.184ZM70.5961 135.842L69.7581 136.498L69.4154 138.886L68.253 138.719L69.6382 129.068L70.8006 129.235L69.9628 135.072L70.6922 134.413L73.1307 132.48L74.5444 132.683L71.4915 135.144L73.8766 139.526L72.5131 139.33L70.5961 135.842ZM76.8441 133.013L76.7591 133.873C77.3723 133.294 78.0978 133.065 78.9356 133.185C80.3724 133.391 80.9807 134.306 80.7606 135.929L80.1159 140.421L78.9535 140.255L79.5991 135.756C79.6653 135.265 79.6042 134.886 79.4158 134.62C79.2317 134.354 78.9071 134.188 78.4422 134.121C78.0652 134.067 77.7198 134.12 77.4061 134.28C77.0924 134.441 76.8325 134.673 76.6265 134.976L75.9312 139.821L74.7688 139.654L75.7445 132.856L76.8441 133.013ZM82.0579 137.167C82.1535 136.501 82.3693 135.92 82.7054 135.426C83.0456 134.932 83.4689 134.573 83.9754 134.351C84.486 134.129 85.0408 134.061 85.6398 134.147C86.5656 134.28 87.2673 134.708 87.745 135.431C88.2269 136.154 88.3915 137.048 88.2388 138.112L88.2271 138.193C88.1321 138.855 87.919 139.432 87.5877 139.923C87.2612 140.41 86.8403 140.767 86.3248 140.992C85.8136 141.218 85.2522 141.287 84.6406 141.199C83.7191 141.067 83.0174 140.639 82.5355 139.916C82.0578 139.193 81.8947 138.304 82.0462 137.248L82.0579 137.167ZM83.2067 137.473C83.0985 138.227 83.1855 138.857 83.4676 139.363C83.754 139.87 84.1904 140.166 84.7768 140.25C85.3674 140.335 85.8696 140.172 86.2834 139.761C86.6979 139.346 86.9649 138.722 87.0845 137.888C87.1915 137.143 87.1001 136.514 86.8101 136.002C86.525 135.486 86.0892 135.187 85.5028 135.102C84.9289 135.02 84.4333 135.182 84.0159 135.588C83.5985 135.994 83.3288 136.622 83.2067 137.473ZM95.4571 140.988L97.5098 135.979L98.6722 136.146L95.7172 142.661L94.7747 142.525L93.8617 137.136L91.5137 142.057L90.5712 141.922L89.574 134.84L90.7301 135.006L91.338 140.288L93.6518 135.426L94.588 135.56L95.4571 140.988ZM100.959 136.474L100.874 137.334C101.488 136.755 102.213 136.526 103.051 136.646C104.488 136.852 105.096 137.767 104.876 139.39L104.231 143.882L103.069 143.716L103.714 139.217C103.78 138.726 103.719 138.347 103.531 138.081C103.347 137.815 103.022 137.649 102.557 137.582C102.18 137.528 101.835 137.581 101.521 137.741C101.208 137.901 100.948 138.134 100.742 138.437L100.046 143.282L98.884 143.115L99.8597 136.316L100.959 136.474ZM106.097 143.528C106.126 143.327 106.208 143.168 106.345 143.051C106.485 142.934 106.675 142.893 106.914 142.927C107.153 142.961 107.323 143.054 107.426 143.206C107.532 143.358 107.571 143.534 107.542 143.736C107.514 143.928 107.428 144.08 107.284 144.192C107.144 144.305 106.954 144.344 106.716 144.31C106.477 144.275 106.306 144.184 106.203 144.037C106.105 143.89 106.069 143.721 106.097 143.528ZM109.49 144.015C109.519 143.814 109.601 143.655 109.738 143.538C109.878 143.421 110.068 143.38 110.307 143.414C110.546 143.448 110.716 143.541 110.818 143.693C110.925 143.845 110.964 144.021 110.935 144.222C110.907 144.415 110.821 144.567 110.677 144.679C110.537 144.792 110.347 144.831 110.109 144.796C109.87 144.762 109.699 144.671 109.596 144.524C109.498 144.377 109.462 144.208 109.49 144.015ZM112.883 144.502C112.912 144.301 112.994 144.142 113.131 144.025C113.271 143.908 113.461 143.867 113.7 143.901C113.939 143.935 114.109 144.028 114.211 144.18C114.318 144.332 114.357 144.508 114.328 144.709C114.3 144.902 114.214 145.054 114.07 145.166C113.93 145.279 113.74 145.318 113.502 145.283C113.263 145.249 113.092 145.158 112.989 145.011C112.89 144.864 112.855 144.695 112.883 144.502Z" fill="#D8D8D8"/>
</g>
<g clip-path="url(#clip1)">
<path d="M285.147 239.474C283.831 239.634 282.602 239.783 281.474 239.847C280.207 239.945 277.005 239.781 274.535 236.098L265.931 223.219C264.718 222.116 264.627 220.239 265.726 219.022C266.161 218.576 266.737 218.295 267.357 218.225C268.282 218.14 269.198 218.465 269.863 219.113L273.536 223.034L273.59 223.083L271.61 206.739C271.406 205.051 272.609 203.516 274.298 203.311C275.986 203.107 277.521 204.31 277.726 205.998L279.021 216.692C278.688 215.145 279.673 213.621 281.22 213.288C282.768 212.956 284.292 213.94 284.624 215.488C284.661 215.658 284.682 215.831 284.687 216.006L284.957 218.236C284.625 216.688 285.609 215.165 287.157 214.832C288.704 214.499 290.228 215.484 290.56 217.031C290.597 217.202 290.618 217.375 290.623 217.549L290.831 219.267C290.499 217.72 291.483 216.196 293.031 215.863C294.578 215.531 296.102 216.515 296.435 218.063C296.471 218.233 296.492 218.407 296.497 218.581L297.76 229.007C298.094 232.221 297.299 237.802 292.2 238.42C291.832 238.48 288.717 239.042 285.147 239.474Z" fill="white"/>
<path d="M293.202 215.078C292.37 215.187 291.604 215.592 291.046 216.219C290.407 214.767 288.907 213.89 287.328 214.046C286.547 214.153 285.824 214.523 285.28 215.094C284.764 213.43 283.159 212.35 281.424 212.499C280.686 212.59 279.997 212.914 279.457 213.425L279.226 211.518C283.259 208.874 284.385 203.461 281.742 199.428C279.098 195.395 273.685 194.269 269.652 196.912C265.619 199.556 264.493 204.969 267.136 209.002C268.185 210.602 269.73 211.813 271.535 212.45L272.544 220.779L270.454 218.578C269.01 217.085 266.631 217.04 265.133 218.479C263.752 219.984 263.821 222.316 265.29 223.737L273.886 236.545C276.589 240.575 280.145 240.752 281.578 240.634C282.814 240.54 284.077 240.403 285.282 240.257C289.081 239.797 292.351 239.201 292.351 239.201L292.43 239.192C298.127 238.501 298.977 232.186 298.629 228.917L297.364 218.476C297.171 216.402 295.333 214.879 293.259 215.072C293.24 215.074 293.221 215.076 293.202 215.078ZM267.329 205.059C266.835 201.144 269.608 197.571 273.522 197.077C277.437 196.583 281.011 199.355 281.505 203.27C281.811 205.696 280.855 208.111 278.97 209.67L278.514 205.903C278.257 203.779 276.327 202.266 274.203 202.523C272.079 202.78 270.565 204.71 270.822 206.834C270.822 206.834 270.822 206.834 270.822 206.835L271.279 210.602C269.11 209.54 267.624 207.455 267.329 205.059ZM296.972 229.102C297.011 229.425 297.738 237.005 292.034 237.64C291.979 237.647 286.457 238.668 281.41 239.055C280.286 239.144 277.404 238.989 275.194 235.658L266.566 222.783C266.535 222.738 266.501 222.697 266.463 222.659C265.57 221.857 265.493 220.483 266.29 219.586C267.164 218.781 268.523 218.826 269.341 219.688L273.019 223.648L273.071 223.682C273.15 223.747 273.237 223.802 273.331 223.842L273.47 223.873L273.628 223.854L273.683 223.848L273.77 223.837L273.927 223.818L274.062 223.738L274.14 223.728L274.175 223.684C274.212 223.644 274.244 223.6 274.271 223.552C274.297 223.512 274.318 223.469 274.335 223.425C274.35 223.379 274.36 223.332 274.367 223.285C274.365 223.232 274.359 223.179 274.347 223.127C274.347 223.127 274.347 223.127 274.341 223.072L272.351 206.65C272.199 205.396 273.092 204.257 274.346 204.105C275.599 203.953 276.738 204.846 276.89 206.1L278.58 220.048C278.633 220.483 279.028 220.793 279.464 220.74C279.899 220.688 280.209 220.292 280.156 219.857L279.762 216.602C279.503 215.488 280.198 214.375 281.312 214.116C282.427 213.858 283.54 214.552 283.798 215.667C283.832 215.811 283.85 215.959 283.852 216.107L284.538 221.773C284.591 222.208 284.986 222.518 285.422 222.465C285.857 222.413 286.167 222.017 286.114 221.582L285.698 218.146C285.44 217.032 286.134 215.918 287.248 215.66C288.363 215.402 289.476 216.096 289.735 217.21C289.768 217.355 289.786 217.502 289.788 217.651L290.552 223.955C290.604 224.39 291 224.7 291.435 224.648C291.87 224.595 292.18 224.199 292.128 223.764L291.572 219.178C291.314 218.063 292.008 216.95 293.123 216.692C294.237 216.433 295.35 217.127 295.609 218.242C295.642 218.386 295.66 218.534 295.662 218.682L296.972 229.102Z" fill="#0D0D0D"/>
</g>
<path d="M384.287 63.104C384.285 43.5461 368.38 27.6411 348.822 27.6391C348.007 27.6391 347.344 28.3015 347.344 29.1165C347.344 29.9315 348.007 30.594 348.822 30.594C366.745 30.5962 381.33 45.1804 381.332 63.1041C381.334 63.5116 381.499 63.8815 381.767 64.149C382.034 64.4166 382.402 64.5837 382.809 64.5816C383.624 64.5815 384.287 63.919 384.287 63.104Z" fill="#F5F2F0"/>
<path d="M389.574 57.8798C388.997 57.303 388.061 57.303 387.484 57.8797L382.26 63.1041L377.035 57.8798C376.459 57.303 375.522 57.303 374.946 57.8797C374.369 58.4565 374.369 59.3928 374.946 59.9696L381.215 66.2388C381.792 66.8155 382.726 66.8177 383.305 66.2388L389.574 59.9696C390.151 59.3926 390.151 58.4565 389.574 57.8798Z" fill="#F5F2F0"/>
<defs>
<filter id="filter0_d" x="0" y="0.261963" width="402.729" height="274.712" filterUnits="userSpaceOnUse" color-interpolation-filters="sRGB">
<feFlood flood-opacity="0" result="BackgroundImageFix"/>
<feColorMatrix in="SourceAlpha" type="matrix" values="0 0 0 0 0 0 0 0 0 0 0 0 0 0 0 0 0 0 127 0"/>
<feOffset/>
<feGaussianBlur stdDeviation="22"/>
<feColorMatrix type="matrix" values="0 0 0 0 0 0 0 0 0 0 0 0 0 0 0 0 0 0 1 0"/>
<feBlend mode="normal" in2="BackgroundImageFix" result="effect1_dropShadow"/>
<feBlend mode="normal" in="SourceGraphic" in2="effect1_dropShadow" result="shape"/>
</filter>
<linearGradient id="paint0_linear" x1="431.347" y1="20.2441" x2="241.932" y2="330.781" gradientUnits="userSpaceOnUse">
<stop stop-color="#6B98F5"/>
<stop offset="0.463542" stop-color="#AA84C6"/>
<stop offset="1" stop-color="#DCC5CE"/>
</linearGradient>
<clipPath id="clip0">
<rect width="133" height="18" fill="white" transform="translate(64.6678 157.399) rotate(8.16724)"/>
</clipPath>
<clipPath id="clip1">
<rect width="45.8186" height="45.8186" fill="white" transform="translate(255 197.772) rotate(-6.90755)"/>
</clipPath>
</defs>
</svg>
