<svg width="14" height="14" viewBox="0 0 14 14" fill="none" xmlns="http://www.w3.org/2000/svg">
<path d="M0.12936 1.37857C-0.0431192 1.55105 -0.0431197 1.83069 0.12936 2.00317L5.12619 7L0.12936 11.9968C-0.0431199 12.1693 -0.0431198 12.449 0.12936 12.6214L1.37857 13.8706C1.55105 14.0431 1.83069 14.0431 2.00317 13.8706L7 8.87381L11.9968 13.8706C12.1693 14.0431 12.449 14.0431 12.6214 13.8706L13.8706 12.6214C14.0431 12.449 14.0431 12.1693 13.8706 11.9968L8.87381 7L13.8706 2.00317C14.0431 1.83069 14.0431 1.55105 13.8706 1.37857L12.6214 0.12936C12.449 -0.0431198 12.1693 -0.0431198 11.9968 0.12936L7 5.12619L2.00317 0.12936C1.83069 -0.0431199 1.55105 -0.0431198 1.37857 0.12936L0.12936 1.37857Z" fill="#9B9B9B"/>
</svg>
