<svg width="18" height="18" viewBox="0 0 18 18" fill="none" xmlns="http://www.w3.org/2000/svg">
<path d="M1 9C1 11.1217 1.84285 13.1566 3.34315 14.6569C4.84344 16.1571 6.87827 17 9 17C11.1217 17 13.1566 16.1571 14.6569 14.6569C16.1571 13.1566 17 11.1217 17 9C17 6.87827 16.1571 4.84344 14.6569 3.34315C13.1566 1.84285 11.1217 1 9 1C6.87827 1 4.84344 1.84285 3.34315 3.34315C1.84285 4.84344 1 6.87827 1 9V9Z" stroke="#D8D8D8" stroke-width="1.3" stroke-linecap="round" stroke-linejoin="round"/>
<path d="M9 9V13.3077" stroke="#D8D8D8" stroke-width="1.3" stroke-linecap="round" stroke-linejoin="round"/>
<path d="M8.38477 5.923C8.38477 6.08621 8.4496 6.24274 8.56501 6.35814C8.68041 6.47355 8.83694 6.53839 9.00015 6.53839C9.16336 6.53839 9.31989 6.47355 9.43529 6.35814C9.5507 6.24274 9.61553 6.08621 9.61553 5.923C9.61553 5.75979 9.5507 5.60327 9.43529 5.48786C9.31989 5.37245 9.16336 5.30762 9.00015 5.30762C8.83694 5.30762 8.68041 5.37245 8.56501 5.48786C8.4496 5.60327 8.38477 5.75979 8.38477 5.923Z" stroke="#D8D8D8" stroke-width="1.3" stroke-linecap="round" stroke-linejoin="round"/>
</svg>
