<svg width="19" height="20" viewBox="0 0 19 20" fill="none" xmlns="http://www.w3.org/2000/svg">
<path d="M1 5.15381H18" stroke="#D8D8D8" stroke-width="1.3" stroke-linecap="round" stroke-linejoin="round"/>
<path d="M3.125 5.15381H15.875V17.6153C15.875 17.9826 15.7257 18.3348 15.4601 18.5944C15.1944 18.8541 14.8341 19 14.4583 19H4.54167C4.16594 19 3.80561 18.8541 3.53993 18.5944C3.27426 18.3348 3.125 17.9826 3.125 17.6153V5.15381Z" stroke="#D8D8D8" stroke-width="1.3" stroke-linecap="round" stroke-linejoin="round"/>
<path d="M5.95825 5.15385V4.46154C5.95825 3.54348 6.33139 2.66303 6.99558 2.01386C7.65977 1.3647 8.56061 1 9.49992 1C10.4392 1 11.3401 1.3647 12.0043 2.01386C12.6684 2.66303 13.0416 3.54348 13.0416 4.46154V5.15385" stroke="#D8D8D8" stroke-width="1.3" stroke-linecap="round" stroke-linejoin="round"/>
<path d="M7.375 7.9231V15.5385" stroke="#D8D8D8" stroke-width="1.3" stroke-linecap="round" stroke-linejoin="round"/>
<path d="M11.625 7.9231V15.5385" stroke="#D8D8D8" stroke-width="1.3" stroke-linecap="round" stroke-linejoin="round"/>
</svg>
