<svg width="119" height="30" viewBox="0 0 119 30" fill="none" xmlns="http://www.w3.org/2000/svg">
<path d="M5.24 10.7C6.65333 10.7 7.78 11.0533 8.62 11.76C9.47333 12.4667 10.0067 13.4 10.22 14.56H7.02C6.92667 14.1067 6.71333 13.7533 6.38 13.5C6.06 13.2333 5.65333 13.1 5.16 13.1C4.77333 13.1 4.48 13.1867 4.28 13.36C4.08 13.52 3.98 13.7533 3.98 14.06C3.98 14.4067 4.16 14.6667 4.52 14.84C4.89333 15.0133 5.47333 15.1867 6.26 15.36C7.11333 15.56 7.81333 15.7667 8.36 15.98C8.90667 16.18 9.38 16.5133 9.78 16.98C10.18 17.4467 10.38 18.0733 10.38 18.86C10.38 19.5 10.2067 20.0667 9.86 20.56C9.51333 21.0533 9.01333 21.44 8.36 21.72C7.70667 22 6.93333 22.14 6.04 22.14C4.53333 22.14 3.32667 21.8067 2.42 21.14C1.51333 20.4733 0.96 19.52 0.76 18.28H4.06C4.11333 18.76 4.31333 19.1267 4.66 19.38C5.02 19.6333 5.48 19.76 6.04 19.76C6.42667 19.76 6.72 19.6733 6.92 19.5C7.12 19.3133 7.22 19.0733 7.22 18.78C7.22 18.3933 7.03333 18.12 6.66 17.96C6.3 17.7867 5.70667 17.6067 4.88 17.42C4.05333 17.2467 3.37333 17.06 2.84 16.86C2.30667 16.66 1.84667 16.34 1.46 15.9C1.07333 15.4467 0.88 14.8333 0.88 14.06C0.88 13.06 1.26 12.2533 2.02 11.64C2.78 11.0133 3.85333 10.7 5.24 10.7ZM23.9738 10.84V22H20.5338V19.98C20.2138 20.6333 19.7338 21.1533 19.0938 21.54C18.4671 21.9267 17.7338 22.12 16.8938 22.12C15.6138 22.12 14.5938 21.6933 13.8338 20.84C13.0871 19.9867 12.7138 18.8133 12.7138 17.32V10.84H16.1138V16.9C16.1138 17.66 16.3071 18.2533 16.6938 18.68C17.0938 19.0933 17.6271 19.3 18.2938 19.3C18.9871 19.3 19.5338 19.08 19.9338 18.64C20.3338 18.2 20.5338 17.5733 20.5338 16.76V10.84H23.9738ZM33.8908 10.7C34.8108 10.7 35.6308 10.9333 36.3508 11.4C37.0841 11.8533 37.6574 12.5133 38.0708 13.38C38.4974 14.2333 38.7108 15.2467 38.7108 16.42C38.7108 17.58 38.4974 18.5933 38.0708 19.46C37.6574 20.3267 37.0841 20.9933 36.3508 21.46C35.6308 21.9133 34.8108 22.14 33.8908 22.14C33.0374 22.14 32.3041 21.9467 31.6908 21.56C31.0774 21.1733 30.6308 20.6467 30.3508 19.98V22H26.9308V7.2H30.3508V12.86C30.6308 12.1933 31.0774 11.6667 31.6908 11.28C32.3041 10.8933 33.0374 10.7 33.8908 10.7ZM32.7908 13.7C32.0708 13.7 31.4774 13.9467 31.0108 14.44C30.5574 14.92 30.3308 15.58 30.3308 16.42C30.3308 17.2467 30.5574 17.9067 31.0108 18.4C31.4774 18.8933 32.0708 19.14 32.7908 19.14C33.5241 19.14 34.1108 18.9 34.5508 18.42C35.0041 17.94 35.2308 17.2733 35.2308 16.42C35.2308 15.5667 35.0041 14.9 34.5508 14.42C34.1108 13.94 33.5241 13.7 32.7908 13.7ZM45.1455 10.7C46.5588 10.7 47.6855 11.0533 48.5255 11.76C49.3788 12.4667 49.9121 13.4 50.1255 14.56H46.9255C46.8321 14.1067 46.6188 13.7533 46.2855 13.5C45.9655 13.2333 45.5588 13.1 45.0655 13.1C44.6788 13.1 44.3855 13.1867 44.1855 13.36C43.9855 13.52 43.8855 13.7533 43.8855 14.06C43.8855 14.4067 44.0655 14.6667 44.4255 14.84C44.7988 15.0133 45.3788 15.1867 46.1655 15.36C47.0188 15.56 47.7188 15.7667 48.2655 15.98C48.8121 16.18 49.2855 16.5133 49.6855 16.98C50.0855 17.4467 50.2855 18.0733 50.2855 18.86C50.2855 19.5 50.1121 20.0667 49.7655 20.56C49.4188 21.0533 48.9188 21.44 48.2655 21.72C47.6121 22 46.8388 22.14 45.9455 22.14C44.4388 22.14 43.2321 21.8067 42.3255 21.14C41.4188 20.4733 40.8655 19.52 40.6655 18.28H43.9655C44.0188 18.76 44.2188 19.1267 44.5655 19.38C44.9255 19.6333 45.3855 19.76 45.9455 19.76C46.3321 19.76 46.6255 19.6733 46.8255 19.5C47.0255 19.3133 47.1255 19.0733 47.1255 18.78C47.1255 18.3933 46.9388 18.12 46.5655 17.96C46.2055 17.7867 45.6121 17.6067 44.7855 17.42C43.9588 17.2467 43.2788 17.06 42.7455 16.86C42.2121 16.66 41.7521 16.34 41.3655 15.9C40.9788 15.4467 40.7855 14.8333 40.7855 14.06C40.7855 13.06 41.1655 12.2533 41.9255 11.64C42.6855 11.0133 43.7588 10.7 45.1455 10.7ZM59.0992 19.06V22H57.5592C56.2526 22 55.2326 21.68 54.4992 21.04C53.7792 20.3867 53.4192 19.3133 53.4192 17.82V13.72H51.9192V10.84H53.4192V8.1H56.8392V10.84H59.0792V13.72H56.8392V17.88C56.8392 18.32 56.9259 18.6267 57.0992 18.8C57.2859 18.9733 57.5926 19.06 58.0192 19.06H59.0992ZM65.0414 12.94C65.4681 12.26 66.0147 11.72 66.6814 11.32C67.3614 10.92 68.0947 10.72 68.8814 10.72V14.38H67.9014C66.9947 14.38 66.2881 14.5733 65.7814 14.96C65.2881 15.3467 65.0414 16 65.0414 16.92V22H61.6214V10.84H65.0414V12.94ZM75.1528 10.7C76.0061 10.7 76.7395 10.8933 77.3528 11.28C77.9661 11.6667 78.4195 12.1933 78.7128 12.86V10.84H82.1128V22H78.7128V19.98C78.4195 20.6467 77.9661 21.1733 77.3528 21.56C76.7395 21.9467 76.0061 22.14 75.1528 22.14C74.2328 22.14 73.4061 21.9133 72.6728 21.46C71.9528 20.9933 71.3795 20.3267 70.9528 19.46C70.5395 18.5933 70.3328 17.58 70.3328 16.42C70.3328 15.2467 70.5395 14.2333 70.9528 13.38C71.3795 12.5133 71.9528 11.8533 72.6728 11.4C73.4061 10.9333 74.2328 10.7 75.1528 10.7ZM76.2528 13.7C75.5195 13.7 74.9261 13.94 74.4728 14.42C74.0328 14.9 73.8128 15.5667 73.8128 16.42C73.8128 17.2733 74.0328 17.94 74.4728 18.42C74.9261 18.9 75.5195 19.14 76.2528 19.14C76.9728 19.14 77.5595 18.8933 78.0128 18.4C78.4795 17.9067 78.7128 17.2467 78.7128 16.42C78.7128 15.58 78.4795 14.92 78.0128 14.44C77.5595 13.9467 76.9728 13.7 76.2528 13.7ZM91.3875 19.06V22H89.8475C88.5408 22 87.5208 21.68 86.7875 21.04C86.0675 20.3867 85.7075 19.3133 85.7075 17.82V13.72H84.2075V10.84H85.7075V8.1H89.1275V10.84H91.3675V13.72H89.1275V17.88C89.1275 18.32 89.2142 18.6267 89.3875 18.8C89.5742 18.9733 89.8808 19.06 90.3075 19.06H91.3875ZM104.51 16.12C104.51 16.4 104.476 16.7067 104.41 17.04H96.6697C96.7097 17.88 96.923 18.4867 97.3097 18.86C97.6964 19.22 98.1897 19.4 98.7897 19.4C99.2964 19.4 99.7164 19.2733 100.05 19.02C100.383 18.7667 100.603 18.44 100.71 18.04H104.33C104.183 18.8267 103.863 19.5333 103.37 20.16C102.876 20.7733 102.25 21.26 101.49 21.62C100.73 21.9667 99.883 22.14 98.9497 22.14C97.8564 22.14 96.883 21.9133 96.0297 21.46C95.1897 20.9933 94.5297 20.3267 94.0497 19.46C93.5697 18.5933 93.3297 17.58 93.3297 16.42C93.3297 15.2467 93.563 14.2333 94.0297 13.38C94.5097 12.5133 95.1764 11.8533 96.0297 11.4C96.883 10.9333 97.8564 10.7 98.9497 10.7C100.056 10.7 101.03 10.9267 101.87 11.38C102.71 11.8333 103.356 12.4733 103.81 13.3C104.276 14.1133 104.51 15.0533 104.51 16.12ZM101.05 15.6C101.063 14.8667 100.863 14.32 100.45 13.96C100.05 13.5867 99.5497 13.4 98.9497 13.4C98.323 13.4 97.803 13.5867 97.3897 13.96C96.9764 14.3333 96.743 14.88 96.6897 15.6H101.05Z" fill="white"/>
<line x1="107" y1="21" x2="119" y2="21" stroke="#18FFB2" stroke-width="4"/>
</svg>
