<svg width="27" height="27" viewBox="0 0 27 27" fill="none" xmlns="http://www.w3.org/2000/svg">
<path d="M1.21149 5.8463C1.07901 6.01077 1.00459 6.21483 0.999939 6.42643V20.57C1.00012 20.7651 1.059 20.9556 1.16884 21.1164C1.27868 21.2772 1.43434 21.4009 1.61537 21.4711L13.1547 25.9343C13.2651 25.9774 13.3825 25.9997 13.5009 26M1.21149 5.8463L13.5009 10.5995M1.21149 5.8463C1.31591 5.70453 1.4569 5.59418 1.61921 5.52721L13.1586 1.06408C13.3802 0.978639 13.6254 0.978639 13.8471 1.06408L25.3864 5.52721C25.5473 5.59478 25.6869 5.70509 25.7903 5.8463M13.5009 26V10.5995M13.5009 26C13.6186 26.0001 13.7353 25.9785 13.8452 25.9362L25.3845 21.4731C25.5655 21.4028 25.7212 21.2792 25.831 21.1183C25.9409 20.9575 25.9998 20.767 25.9999 20.5719V6.42836C25.9963 6.21632 25.9225 6.01154 25.7903 5.8463M13.5009 10.5995L25.7903 5.8463" stroke="url(#paint0_linear)" stroke-width="1.94596" stroke-linecap="round" stroke-linejoin="round"/>
<defs>
<linearGradient id="paint0_linear" x1="31.859" y1="-3.11264" x2="-3.78688" y2="25.6153" gradientUnits="userSpaceOnUse">
<stop stop-color="#6B98F5"/>
<stop offset="0.463542" stop-color="#AA84C6"/>
<stop offset="1" stop-color="#DCC5CE"/>
</linearGradient>
</defs>
</svg>
