<svg width="58" height="52" viewBox="0 0 58 52" fill="none" xmlns="http://www.w3.org/2000/svg">
<path fill-rule="evenodd" clip-rule="evenodd" d="M30.9527 1.40541C29.907 -0.468467 27.293 -0.46847 26.2473 1.4054L0.368012 47.7838C-0.677617 49.6577 0.629416 52 2.72067 52H54.4793C56.5706 52 57.8776 49.6577 56.832 47.7838L30.9527 1.40541Z" fill="#E6004D"/>
<path d="M32.1613 28.588V17.3335H26.6466V28.588C26.6466 29.7948 26.7163 30.995 26.8557 32.1886C26.9952 33.3692 27.179 34.5759 27.4072 35.809H31.4006C31.6288 34.5759 31.8127 33.3692 31.9521 32.1886C32.0916 30.995 32.1613 29.7948 32.1613 28.588Z" fill="white"/>
<path d="M26.2472 41.5936C26.0824 42.0002 26 42.4397 26 42.9119C26 43.3841 26.0824 43.8301 26.2472 44.2498C26.4247 44.6565 26.6592 45.0106 26.9508 45.3123C27.2551 45.614 27.6101 45.8501 28.0157 46.0206C28.4214 46.1912 28.8651 46.2764 29.3469 46.2764C29.816 46.2764 30.2533 46.1912 30.659 46.0206C31.0647 45.8501 31.4197 45.614 31.7239 45.3123C32.0282 45.0106 32.2627 44.6565 32.4275 44.2498C32.605 43.8301 32.6938 43.3841 32.6938 42.9119C32.6938 42.4397 32.605 42.0002 32.4275 41.5936C32.2627 41.187 32.0282 40.8328 31.7239 40.5311C31.4197 40.2294 31.0647 39.9933 30.659 39.8228C30.2533 39.6392 29.816 39.5473 29.3469 39.5473C28.8651 39.5473 28.4214 39.6392 28.0157 39.8228C27.6101 39.9933 27.2551 40.2294 26.9508 40.5311C26.6592 40.8328 26.4247 41.187 26.2472 41.5936Z" fill="white"/>
</svg>
